<?xml version="1.0" encoding="UTF-8" standalone="no"?>
<!DOCTYPE svg PUBLIC "-//W3C//DTD SVG 1.1//EN" "http://www.w3.org/Graphics/SVG/1.1/DTD/svg11.dtd">
<svg width="100%" height="100%" viewBox="0 0 430 450" version="1.1" xmlns="http://www.w3.org/2000/svg" xmlns:xlink="http://www.w3.org/1999/xlink" xml:space="preserve" xmlns:serif="http://www.serif.com/" style="fill-rule:evenodd;clip-rule:evenodd;stroke-linejoin:round;stroke-miterlimit:22.926;">
    <g transform="matrix(0.593803,0,0,0.593803,360.549,299.533)">
        <path d="M0,-351.496C18.095,-250.109 20.826,-193.839 26.727,-83.579C33.896,-35.225 33.967,4.116 31.877,52.701C30.76,47.826 27.955,42.951 25.525,38.451C31.455,12.891 25.156,-55.635 19.827,-82.982C14.277,-168.057 10.153,-255.74 -5.398,-339.628C-9.888,-363.842 -10.755,-399.7 -39.567,-403.02C-13.073,-404.197 -3.429,-370.703 0,-351.496" style="fill:rgb(239,235,235);"/>
    </g>
    <g transform="matrix(0.593803,0,0,0.593803,360.549,299.533)">
        <path d="M0,-351.496C18.095,-250.109 20.826,-193.839 26.727,-83.579C33.896,-35.225 33.967,4.116 31.877,52.701C30.76,47.826 27.955,42.951 25.525,38.451C31.455,12.891 25.156,-55.635 19.827,-82.982C14.277,-168.057 10.153,-255.74 -5.398,-339.628C-9.888,-363.842 -10.755,-399.7 -39.567,-403.02C-13.073,-404.197 -3.429,-370.703 0,-351.496Z" style="fill:none;fill-rule:nonzero;stroke:rgb(35,31,32);stroke-width:2.39px;"/>
    </g>
    <g transform="matrix(0.593803,0,0,0.593803,379.671,323.504)">
        <path d="M0,-65.495C1.231,-40.433 0.864,-15.749 -0.326,11.938C-1.443,7.063 -4.249,2.188 -6.679,-2.312C-3.086,-17.799 -3.982,-49.055 -6.433,-77.37L-5.716,-77.433L0,-65.495Z" style="fill:rgb(65,64,66);stroke:rgb(35,31,32);stroke-width:2.39px;"/>
    </g>
    <g transform="matrix(0.593803,0,0,0.593803,65.2655,327.585)">
        <path d="M0,190.35L44.074,190.35C50.563,190.35 55.871,184.465 55.871,177.273L55.871,13.077C55.871,5.884 50.563,0 44.074,0L0,0C-6.488,0 -11.797,5.884 -11.797,13.077L-11.797,177.273C-11.797,184.465 -6.488,190.35 0,190.35Z" style="fill:rgb(35,31,32);stroke:rgb(35,31,32);stroke-width:0.95px;stroke-linejoin:miter;"/>
    </g>
    <g transform="matrix(0.593803,0,0,0.593803,337.346,327.585)">
        <path d="M0,190.35L44.075,190.35C50.563,190.35 55.872,184.465 55.872,177.273L55.872,13.077C55.872,5.884 50.563,0 44.075,0L0,0C-6.488,0 -11.797,5.884 -11.797,13.077L-11.797,177.273C-11.797,184.465 -6.488,190.35 0,190.35Z" style="fill:rgb(35,31,32);stroke:rgb(35,31,32);stroke-width:0.95px;stroke-linejoin:miter;"/>
    </g>
    <g transform="matrix(0.593803,0,0,0.593803,227.944,389.414)">
        <path d="M0,20.291C3.464,17.728 5.003,15.164 5.003,15.164C7.185,15.407 9.79,17.149 11.547,15.895C13.318,14.632 10.85,10.825 12.701,9.67C15.5,7.926 19.586,10.08 22.709,8.937C33.122,5.129 52.419,4.356 68.128,5.275C70.128,5.393 70.782,8.563 72.746,8.937C76.278,9.609 80.156,9.42 83.524,8.205C96.046,3.687 90.406,10.133 98.15,12.966C102.463,14.544 107.387,13.276 112.007,13.332C117.396,13.398 124.424,9.761 128.173,13.332C133.08,18.007 134.995,15.64 137.025,14.431C139.209,13.132 172.437,16.994 172.437,16.994L177.056,-12.303C43.732,-12.535 -89.378,-12.535 -222.701,-12.303L-218.083,16.994C-218.083,16.994 -188.264,14.059 -185.723,14.559C-179.075,15.867 -179.53,17.311 -173.818,13.332C-169.516,10.336 -163.04,13.398 -157.652,13.332C-144.632,13.175 -149.251,11.577 -142.642,7.839C-138.789,5.66 -135.975,4.788 -131.496,4.909C-129.149,4.973 -126.301,10.442 -118.392,8.937C-116.427,8.564 -115.773,5.393 -113.773,5.275C-97.035,4.296 -81.832,4.007 -68.354,8.937C-65.231,10.08 -61.146,7.926 -58.347,9.67C-56.495,10.825 -58.964,14.632 -57.192,15.895C-55.436,17.149 -52.83,15.407 -50.648,15.164C-50.648,15.164 -49.109,17.728 -45.646,20.291C-28.706,32.826 -16.939,32.826 0,20.291" style="fill:rgb(35,31,32);"/>
    </g>
    <g transform="matrix(0.593803,0,0,0.593803,227.944,389.414)">
        <path d="M0,20.291C3.464,17.728 5.003,15.164 5.003,15.164C7.185,15.407 9.79,17.149 11.547,15.895C13.318,14.632 10.85,10.825 12.701,9.67C15.5,7.926 19.586,10.08 22.709,8.937C33.122,5.129 52.419,4.356 68.128,5.275C70.128,5.393 70.782,8.563 72.746,8.937C76.278,9.609 80.156,9.42 83.524,8.205C96.046,3.687 90.406,10.133 98.15,12.966C102.463,14.544 107.387,13.276 112.007,13.332C117.396,13.398 124.424,9.761 128.173,13.332C133.08,18.007 134.995,15.64 137.025,14.431C139.209,13.132 172.437,16.994 172.437,16.994L177.056,-12.303C43.732,-12.535 -89.378,-12.535 -222.701,-12.303L-218.083,16.994C-218.083,16.994 -188.264,14.059 -185.723,14.559C-179.075,15.867 -179.53,17.311 -173.818,13.332C-169.516,10.336 -163.04,13.398 -157.652,13.332C-144.632,13.175 -149.251,11.577 -142.642,7.839C-138.789,5.66 -135.975,4.788 -131.496,4.909C-129.149,4.973 -126.301,10.442 -118.392,8.937C-116.427,8.564 -115.773,5.393 -113.773,5.275C-97.035,4.296 -81.832,4.007 -68.354,8.937C-65.231,10.08 -61.146,7.926 -58.347,9.67C-56.495,10.825 -58.964,14.632 -57.192,15.895C-55.436,17.149 -52.83,15.407 -50.648,15.164C-50.648,15.164 -49.109,17.728 -45.646,20.291C-28.706,32.826 -16.939,32.826 0,20.291Z" style="fill:none;fill-rule:nonzero;stroke:rgb(35,31,32);stroke-width:0.95px;stroke-linejoin:miter;"/>
    </g>
    <g transform="matrix(0.593803,0,0,0.593803,359.278,278.51)">
        <path d="M0,-283.187C-2.713,-301.546 -5.895,-320.913 -9.467,-338.057C-11.167,-346.213 -16.145,-364.932 -36.12,-367.38C-36.934,-367.48 -37.762,-367.479 -38.578,-367.571C-40.841,-367.826 -40.111,-365.625 -41.589,-364.766C-42.977,-363.96 -45.969,-363.628 -47.772,-365.153C-48.806,-366.027 -48.695,-367.801 -50.574,-367.993C-51.28,-368.065 -51.993,-368.092 -52.702,-368.145C-172.383,-376.954 -302.495,-376.962 -433.303,-368.145C-434.012,-368.096 -434.725,-368.065 -435.431,-367.993C-437.309,-367.801 -437.198,-366.027 -438.232,-365.153C-440.036,-363.628 -443.027,-363.96 -444.416,-364.766C-445.894,-365.625 -445.164,-367.826 -447.426,-367.571C-448.242,-367.479 -449.07,-367.48 -449.885,-367.38C-469.859,-364.932 -474.838,-346.213 -476.537,-338.057C-484.107,-301.731 -489.919,-255.434 -493.246,-229.858C-501.261,-168.25 -504.857,-108.828 -508.854,-47.578C-514.183,-20.23 -519.605,48.232 -513.676,73.793L-517.527,81.659L-517.688,82.041C-497.645,89.537 -441.49,92.289 -419.493,93.775L-410.273,84.75C-407.395,81.933 -402.941,80.626 -398.913,80.626L-87.031,80.626C-83.004,80.626 -78.551,81.933 -75.672,84.75L-66.452,93.775C-48.352,92.553 -7.128,90.472 18.078,85.597C18.078,85.502 30.304,82.493 31.676,81.956L27.105,73.793C33.035,48.232 27.612,-20.23 22.283,-47.578C18.701,-102.482 14.152,-159.543 8.634,-214.561C6.277,-238.05 3.419,-260.044 0,-283.187" style="fill:rgb(239,235,235);"/>
    </g>
    <g transform="matrix(0.593803,0,0,0.593803,359.278,278.51)">
        <path d="M0,-283.187C-2.713,-301.546 -5.895,-320.913 -9.467,-338.057C-11.167,-346.213 -16.145,-364.932 -36.12,-367.38C-36.934,-367.48 -37.762,-367.479 -38.578,-367.571C-40.841,-367.826 -40.111,-365.625 -41.589,-364.766C-42.977,-363.96 -45.969,-363.628 -47.772,-365.153C-48.806,-366.027 -48.695,-367.801 -50.574,-367.993C-51.28,-368.065 -51.993,-368.092 -52.702,-368.145C-172.383,-376.954 -302.495,-376.962 -433.303,-368.145C-434.012,-368.096 -434.725,-368.065 -435.431,-367.993C-437.309,-367.801 -437.198,-366.027 -438.232,-365.153C-440.036,-363.628 -443.027,-363.96 -444.416,-364.766C-445.894,-365.625 -445.164,-367.826 -447.426,-367.571C-448.242,-367.479 -449.07,-367.48 -449.885,-367.38C-469.859,-364.932 -474.838,-346.213 -476.537,-338.057C-484.107,-301.731 -489.919,-255.434 -493.246,-229.858C-501.261,-168.25 -504.857,-108.828 -508.854,-47.578C-514.183,-20.23 -519.605,48.232 -513.676,73.793L-517.527,81.659L-517.688,82.041C-497.645,89.537 -441.49,92.289 -419.493,93.775L-410.273,84.75C-407.395,81.933 -402.941,80.626 -398.913,80.626L-87.031,80.626C-83.004,80.626 -78.551,81.933 -75.672,84.75L-66.452,93.775C-48.352,92.553 -7.128,90.472 18.078,85.597C18.078,85.502 30.304,82.493 31.676,81.956L27.105,73.793C33.035,48.232 27.612,-20.23 22.283,-47.578C18.701,-102.482 14.152,-159.543 8.634,-214.561C6.277,-238.05 3.419,-260.044 0,-283.187Z" style="fill:none;fill-rule:nonzero;stroke:rgb(35,31,32);stroke-width:3.58px;stroke-linejoin:miter;"/>
    </g>
    <g transform="matrix(0.593803,0,0,0.593803,53.7698,334.256)">
        <path d="M0,-95.039C-2.198,-66.731 -2.775,-35.476 0.818,-19.982L-3.033,-12.116L-3.194,-11.734C16.85,-4.238 73.004,-1.486 95.001,0L104.221,-9.025C107.1,-11.843 111.553,-13.15 115.581,-13.15L427.463,-13.15C431.49,-13.15 435.943,-11.843 438.822,-9.025L448.042,0C466.143,-1.223 507.366,-3.304 532.572,-8.179C532.572,-8.273 544.798,-11.282 546.17,-11.819L541.6,-19.982C545.192,-35.467 544.617,-66.696 542.421,-94.991L0,-95.039Z" style="fill:rgb(65,64,66);stroke:rgb(35,31,32);stroke-width:2.39px;stroke-linejoin:miter;"/>
    </g>
    <g transform="matrix(0.593803,0,0,0.593803,60.6548,302.832)">
        <path d="M0,-17.922C-4.373,-18.825 -10.763,-19.994 -11.606,-30.506C-10.763,-19.994 -4.373,-18.825 0,-17.922L77.289,-1.969C82.111,-0.974 85.352,0.26 87.394,2.33L93.135,8.147C95.893,10.941 98.831,12.584 103.723,12.584L416.063,12.584C420.954,12.584 423.894,10.941 426.651,8.147L432.392,2.33C434.435,0.26 437.675,-0.974 442.496,-1.969L519.786,-17.922C524.159,-18.825 530.549,-19.994 531.393,-30.506" style="fill:none;fill-rule:nonzero;stroke:rgb(35,31,32);stroke-width:0.95px;stroke-linejoin:miter;"/>
    </g>
    <g transform="matrix(0.593803,0,0,0.593803,121.169,259.086)">
        <path d="M0,84.395L-19.394,67.061L-28.458,0L-13.067,3.08L329.032,3.08L344.424,0L335.5,67.048L315.966,84.395L0,84.395Z" style="fill:none;fill-rule:nonzero;stroke:rgb(35,31,32);stroke-width:0.95px;stroke-linejoin:miter;"/>
    </g>
    <g transform="matrix(0.593803,0,0,0.593803,121.169,260.915)">
        <path d="M0,81.315L-0.059,81.262C-2.169,52.553 -6.89,23.509 -13.047,0L329.013,0C322.855,23.509 318.135,52.553 316.024,81.262L315.966,81.315L0,81.315Z" style="stroke:rgb(35,31,32);stroke-width:0.95px;stroke-linejoin:miter;"/>
    </g>
    <g transform="matrix(0.593803,0,0,0.593803,288.678,309.2)">
        <path d="M0,-81.315L2.53,-81.315L-7.378,0L-9.909,0L0,-81.315ZM-41.632,-81.315L-39.11,-81.315L-46.236,0L-48.758,0L-41.632,-81.315ZM-80.788,-81.315L-84.284,0L-86.799,0L-83.302,-81.315L-80.788,-81.315Z" style="fill:rgb(65,64,66);"/>
    </g>
    <g transform="matrix(0.593803,0,0,0.593803,164.506,309.2)">
        <path d="M0,-81.315L2.521,-81.315L9.646,0L7.126,0L0,-81.315ZM-41.641,-81.315L-39.11,-81.315L-29.201,0L-31.732,0L-41.641,-81.315ZM41.678,-81.315L45.174,0L47.688,0L44.191,-81.315L41.678,-81.315Z" style="fill:rgb(65,64,66);"/>
    </g>
    <g transform="matrix(0.593803,0,0,0.593803,109.293,250.833)">
        <path d="M0,80.949L-87.271,63.072C-91.568,62.169 -92.925,57.287 -92.72,53.764C-92.133,43.656 -90.928,22.807 -87.301,2.499C-86.974,0.671 -85.546,0 -84.783,0.225L-9.333,13.824L-8.923,13.906L0,80.949Z" style="fill:rgb(65,64,66);stroke:rgb(35,31,32);stroke-width:1.19px;stroke-linejoin:miter;"/>
    </g>
    <g transform="matrix(0.0149357,0.593615,0.593615,-0.0149357,80.348,303.036)">
        <path d="M-33.239,35.354L-24.055,35.354L-37.564,-34.284L-45.431,-33.8L-33.239,35.354Z" style="fill:white;"/>
    </g>
    <g transform="matrix(0.593803,0,0,0.593803,106.184,257.704)">
        <path d="M0,63.604L-3.162,39.615L-76.518,28.076L-76.791,32.256L-9.911,43.58L-8.698,51.833L-78.285,39.231C-78.028,28.385 -76.864,17.541 -75.439,6.696L-2.184,17.515L-2.627,14.237L-78.786,0C-81.747,16.29 -83.813,30.112 -83.193,47.367L0,63.604Z" style="fill:rgb(209,211,212);stroke:rgb(35,31,32);stroke-width:0.95px;stroke-linejoin:miter;"/>
    </g>
    <g transform="matrix(0.593803,0,0,0.593803,106.29,287.933)">
        <path d="M0,12.821L0.204,17.447L-73.836,2.487L-82.716,0.478L-82.791,-4.626L0,12.821Z" style="fill:rgb(128,130,133);stroke:rgb(35,31,32);stroke-width:0.95px;stroke-linejoin:miter;"/>
    </g>
    <g transform="matrix(0.586536,0.0926098,0.0926098,-0.586536,59.9665,270.646)">
        <path d="M1.145,-6.054L80.415,-6.054L74.117,15.839L0.292,14.969C0.105,7.831 0.531,0.788 1.145,-6.054Z" style="fill:rgb(35,31,32);stroke:rgb(35,31,32);stroke-width:0.95px;stroke-linejoin:miter;"/>
    </g>
    <g transform="matrix(0.593803,0,0,0.593803,86.2939,279.388)">
        <path d="M0,-22.749L21.799,-19.619C24.258,-19.266 26.364,-16.909 26.479,-14.383L26.95,-3.951C27.064,-1.425 25.145,0.354 22.686,-0L0.887,-3.131C-1.573,-3.483 -3.679,-5.84 -3.793,-8.366L-4.265,-18.797C-4.379,-21.324 -2.46,-23.103 0,-22.749Z" style="fill:rgb(188,190,192);stroke:rgb(35,31,32);stroke-width:0.95px;stroke-linejoin:miter;"/>
    </g>
    <g transform="matrix(0.593803,0,0,0.593803,64.964,276.333)">
        <path d="M0,-22.749L21.8,-19.619C24.259,-19.266 26.365,-16.909 26.479,-14.383L26.95,-3.951C27.064,-1.425 25.146,0.354 22.687,-0L0.887,-3.13C-1.573,-3.483 -3.679,-5.84 -3.793,-8.366L-4.265,-18.797C-4.378,-21.324 -2.459,-23.103 0,-22.749Z" style="fill:rgb(188,190,192);stroke:rgb(35,31,32);stroke-width:0.95px;stroke-linejoin:miter;"/>
    </g>
    <g transform="matrix(-0.593196,0.0268289,0.0268289,0.593196,72.7781,274.076)">
        <path d="M0.349,-15.441C-3.909,-15.248 -7.36,-11.634 -7.359,-7.368C-7.359,-3.102 -3.908,0.2 0.349,0.008C4.606,-0.185 8.058,-3.799 8.057,-8.066C8.057,-12.331 4.606,-15.633 0.349,-15.441" style="fill:white;"/>
    </g>
    <g transform="matrix(-0.593196,0.0268289,0.0268289,0.593196,72.7781,274.076)">
        <path d="M0.349,-15.441C-3.909,-15.248 -7.36,-11.634 -7.359,-7.368C-7.359,-3.102 -3.908,0.2 0.349,0.008C4.606,-0.185 8.058,-3.799 8.057,-8.066C8.057,-12.331 4.606,-15.633 0.349,-15.441Z" style="fill:none;fill-rule:nonzero;stroke:rgb(35,31,32);stroke-width:0.95px;stroke-linejoin:miter;"/>
    </g>
    <g transform="matrix(-0.593198,0.0267906,0.0267906,0.593198,93.5262,276.94)">
        <path d="M0.349,-15.441C-3.908,-15.249 -7.359,-11.634 -7.359,-7.368C-7.36,-3.102 -3.908,0.2 0.349,0.008C4.605,-0.184 8.058,-3.798 8.057,-8.064C8.058,-12.33 4.607,-15.633 0.349,-15.441" style="fill:white;"/>
    </g>
    <g transform="matrix(-0.593198,0.0267906,0.0267906,0.593198,93.5262,276.94)">
        <path d="M0.349,-15.441C-3.908,-15.249 -7.359,-11.634 -7.359,-7.368C-7.36,-3.102 -3.908,0.2 0.349,0.008C4.605,-0.184 8.058,-3.798 8.057,-8.064C8.058,-12.33 4.607,-15.633 0.349,-15.441Z" style="fill:none;fill-rule:nonzero;stroke:rgb(35,31,32);stroke-width:0.95px;stroke-linejoin:miter;"/>
    </g>
    <g transform="matrix(0.593803,0,0,0.593803,109.57,269.434)">
        <path d="M0,49.446L18.608,66.079C17.591,52.182 15.962,38.212 13.854,24.835C11.682,11.037 8.998,-2.14 5.952,-13.967L-8.975,-16.949L0,49.446ZM18.785,67.251L-0.713,49.823C-3.74,27.246 -6.809,4.672 -9.868,-17.902L6.537,-14.617L6.611,-14.443C9.692,-2.524 12.406,10.781 14.603,24.719C16.762,38.425 18.419,52.738 19.432,66.941L19.46,67.348L18.895,67.348L18.785,67.251Z" style="fill:rgb(35,31,32);"/>
    </g>
    <g transform="matrix(0.593803,0,0,0.593803,57.154,250.812)">
        <path d="M0,62.854C-3.15,61.171 -4.987,58.805 -4.828,53.96C-4.494,43.783 -3.409,22.166 0.51,2.212C0.858,0.436 1.364,0 3.042,0.271L78.697,13.942L79.893,25.716L3.709,11.441C2.04,20.765 -0.999,37.172 0,62.854Z" style="fill:rgb(147,149,152);stroke:rgb(35,31,32);stroke-width:1.19px;stroke-linejoin:miter;"/>
    </g>
    <g transform="matrix(0.583754,0.108778,0.108778,-0.583754,65.04,248.252)">
        <path d="M-1.167,-6.38L67.445,-6.38L69.265,-12.592L6.185,-12.783C1.507,-12.789 -0.558,-10.766 -1.167,-6.38Z" style="fill:rgb(67,82,90);stroke:rgb(35,31,32);stroke-width:0.95px;stroke-linejoin:miter;"/>
    </g>
    <g transform="matrix(0.593803,0,0,0.593803,309.086,259.086)">
        <path d="M0,84.395L19.394,67.061L28.458,0L13.066,3.08L12.792,3.08C6.686,26.697 2.026,55.748 -0.017,84.395L0,84.395Z" style="fill:rgb(51,49,50);"/>
    </g>
    <g transform="matrix(0.593803,0,0,0.593803,320.39,269.434)">
        <path d="M0,49.446L-18.609,66.079C-17.592,52.182 -15.962,38.212 -13.855,24.835C-11.682,11.037 -8.999,-2.14 -5.953,-13.967L8.975,-16.949L0,49.446ZM-18.785,67.251L0.713,49.823C3.74,27.246 6.809,4.672 9.867,-17.902L-6.538,-14.617L-6.611,-14.443C-9.693,-2.524 -12.407,10.781 -14.603,24.719C-16.762,38.425 -18.419,52.738 -19.432,66.941L-19.461,67.348L-18.895,67.348L-18.785,67.251Z" style="fill:rgb(35,31,32);"/>
    </g>
    <g transform="matrix(0.593803,0,0,0.593803,120.874,259.086)">
        <path d="M0,84.395L-19.394,67.061L-28.458,0L-13.067,3.08L-12.792,3.08C-6.686,26.697 -2.027,55.748 0.017,84.395L0,84.395Z" style="fill:rgb(51,49,50);stroke:black;stroke-width:1.19px;stroke-linejoin:miter;"/>
    </g>
    <g transform="matrix(0.593803,0,0,0.593803,104.575,260.764)">
        <path d="M0,6.348L-1.322,-2.825L14.069,0.254L14.345,0.254C15.181,3.49 15.734,6.059 16.41,9.173L0,6.348Z" style="fill:rgb(167,169,172);"/>
    </g>
    <g transform="matrix(0.593803,0,0,0.593803,104.826,265.937)">
        <path d="M0,0.576L-0.422,-2.355L-0.424,-2.364L15.986,0.461L15.996,0.505C16.163,1.277 16.339,2.083 16.527,2.94L0,0.576Z" style="fill:rgb(109,110,113);"/>
    </g>
    <g transform="matrix(-0.593803,0,0,0.593803,286.826,284.266)">
        <path d="M-30,42L5,42L0,0L-35,0.25L-30,42Z" style="fill:rgb(45,42,43);"/>
    </g>
    <g transform="matrix(0.593803,0,0,0.593803,125.045,284.303)">
        <path d="M0,42L35,42L30,0L-5,0.25L0,42Z" style="fill:rgb(45,42,43);"/>
    </g>
    <g transform="matrix(0.0046961,0.593784,0.593784,-0.0046961,213.489,209.455)">
        <path d="M158.696,-157.444C157.857,-157.513 157.02,-157.584 156.182,-157.656L158.696,160.188C159.532,160.102 160.369,160.019 161.206,159.936L158.696,-157.444Z" style="fill:rgb(65,64,66);"/>
    </g>
    <g transform="matrix(-0.0534703,-0.59139,-0.59139,0.0534703,225.45,390.675)">
        <path d="M170.739,162.8L177.569,162.8L148.629,-156.379C144.903,-155.656 145.713,-156.342 141.945,-155.664L170.739,162.8Z" style="fill:rgb(88,89,91);"/>
    </g>
    <g transform="matrix(0.593803,0,0,0.593803,122.736,290.041)">
        <path d="M0,-2.512L317.444,-2.512C317.321,-1.677 317.199,-0.839 317.08,0L0.312,0L0,-2.512Z" style="fill:rgb(65,64,66);"/>
    </g>
    <g transform="matrix(0.593803,0,0,0.593803,118.066,273.971)">
        <path d="M0,17.765L-5.903,-13.452L331.882,-12.888L326.417,17.765L204.021,17.765L203.146,31.14L122.913,31.217L122.521,17.765L0,17.765Z" style="fill:rgb(88,89,91);"/>
    </g>
    <g transform="matrix(0.593803,0,0,0.593803,320.667,250.833)">
        <path d="M0,80.949L87.271,63.072C91.568,62.169 92.925,57.287 92.721,53.764C92.133,43.656 90.929,22.807 87.301,2.499C86.975,0.671 85.547,0 84.784,0.225L9.333,13.824L8.924,13.906L0,80.949Z" style="fill:rgb(65,64,66);stroke:rgb(35,31,32);stroke-width:1.19px;stroke-linejoin:miter;"/>
    </g>
    <g transform="matrix(-0.0149357,0.593615,0.593615,0.0149357,349.897,261.765)">
        <path d="M36.254,-34.086L45.438,-34.086L31.929,35.552L24.062,35.067L36.254,-34.086Z" style="fill:white;"/>
    </g>
    <g transform="matrix(0.593803,0,0,0.593803,323.775,257.704)">
        <path d="M0,63.604L3.161,39.615L76.518,28.076L76.791,32.256L9.91,43.58L8.697,51.833L78.284,39.231C78.027,28.385 76.864,17.541 75.438,6.696L2.183,17.515L2.627,14.237L78.786,0C81.747,16.29 83.813,30.112 83.193,47.367L0,63.604Z" style="fill:rgb(209,211,212);stroke:rgb(35,31,32);stroke-width:0.95px;stroke-linejoin:miter;"/>
    </g>
    <g transform="matrix(0.593803,0,0,0.593803,323.669,287.933)">
        <path d="M0,12.821L-0.203,17.447L73.837,2.487L82.716,0.478L82.791,-4.626L0,12.821Z" style="fill:rgb(128,130,133);stroke:rgb(35,31,32);stroke-width:0.95px;stroke-linejoin:miter;"/>
    </g>
    <g transform="matrix(0.593803,0,0,0.593803,372.806,250.812)">
        <path d="M0,62.854C3.149,61.171 4.987,58.805 4.828,53.96C4.493,43.783 3.409,22.166 -0.51,2.212C-0.858,0.436 -1.365,0 -3.043,0.271L-78.697,13.942L-79.894,25.716L-3.709,11.441C-2.041,20.765 0.999,37.172 0,62.854Z" style="fill:rgb(147,149,152);stroke:rgb(35,31,32);stroke-width:1.19px;stroke-linejoin:miter;"/>
    </g>
    <g transform="matrix(0.593803,0,0,0.593803,-1162.47,-476.887)">
        <rect x="2267.46" y="1277.71" width="106" height="26.25" style="fill:rgb(88,89,91);"/>
    </g>
    <g transform="matrix(0.593803,0,0,0.593803,216.949,288.123)">
        <path d="M0,3.948L-5.271,3.948L-2.637,0.156L0,3.948ZM2.237,-6.196L-7.515,-6.196L-18.934,10.144L-9.548,10.144L-8.271,8.307L2.998,8.307L4.274,10.144L13.66,10.144L2.237,-6.196ZM44.184,10.144L44.184,-6.196L35.088,-6.196L35.088,1.21L24.369,-6.196L15.266,-6.196L15.266,10.144L24.36,10.144L24.36,2.746L35.099,10.144L44.184,10.144ZM-49.663,-6.196L-49.663,10.144L-40.563,10.144L-40.563,3.656L-35.131,8.72L-29.696,3.656L-29.696,10.144L-20.6,10.144L-20.6,-6.196L-29.196,-6.196L-35.131,-0.672L-41.064,-6.196L-49.663,-6.196Z" style="fill:rgb(230,231,232);"/>
    </g>
    <g transform="matrix(0.0710532,0.589536,0.589536,-0.0710532,134.127,295.876)">
        <path d="M-21.667,-17.439L20.637,-17.439L19.754,-24.761L-22.637,-24.436L-21.667,-17.439Z" style="fill:rgb(88,89,91);"/>
    </g>
    <g transform="matrix(0.0188459,0.593503,0.593503,-0.0188459,208.608,164.273)">
        <path d="M168.438,-163.093C164.712,-163.819 161.086,-164.585 157.582,-165.384L168.438,176.504C171.884,175.484 175.454,174.49 179.127,173.529L168.438,-163.093Z" style="fill:rgb(165,195,210);"/>
    </g>
    <g transform="matrix(0.593803,0,0,0.593803,316.612,281.437)">
        <path d="M0,-34.685C-0.908,-31.207 -2.161,-26.733 -3.003,-23.032L-128.514,-13.657C-131.777,-13.414 -133.688,-12.512 -135.857,-10.994L-147.945,-2.526C-150.052,-1.05 -152.188,0 -155.097,0L-187.683,0C-190.591,0 -192.728,-1.05 -194.834,-2.526L-206.922,-10.994C-209.091,-12.512 -211.002,-13.414 -214.266,-13.657L-339.776,-23.032C-340.618,-26.733 -341.684,-31.207 -342.592,-34.685L0,-34.685Z" style="fill:rgb(128,130,133);stroke:rgb(35,31,32);stroke-width:1.19px;stroke-linejoin:miter;"/>
    </g>
    <g transform="matrix(0.593803,0,0,0.593803,316.13,278.866)">
        <path d="M0,-29.544C-0.707,-26.838 -1.395,-24.059 -2.063,-21.215L-132.176,-11.908C-135.099,-11.699 -136.811,-10.91 -138.752,-9.586L-149.579,-2.202C-151.466,-0.916 -153.38,0 -155.984,0L-185.17,0C-187.774,0 -189.688,-0.916 -191.575,-2.202L-202.402,-9.586C-204.344,-10.91 -206.057,-11.69 -208.979,-11.908L-339.646,-21.645C-340.277,-24.317 -340.926,-26.932 -341.592,-29.482C-227.582,-29.482 -114.01,-29.544 0,-29.544" style="fill:rgb(167,169,172);"/>
    </g>
    <g transform="matrix(0.593803,0,0,0.593803,260.99,277.887)">
        <path d="M0,-2.512L87.579,-2.512C87.409,-1.678 87.242,-0.841 87.076,0L-30.881,0C-30.062,-0.184 -29.169,-0.314 -28.164,-0.389L0,-2.512ZM-242.044,0C-242.21,-0.841 -242.377,-1.678 -242.547,-2.512L-155.433,-2.512L-127.27,-0.389C-126.265,-0.314 -125.37,-0.184 -124.553,0L-242.044,0Z" style="fill:rgb(35,31,32);"/>
    </g>
    <g transform="matrix(0.593803,0,0,0.593803,325.199,260.764)">
        <path d="M0,6.348L1.322,-2.825L-14.069,0.254L-14.344,0.254C-15.181,3.49 -15.734,6.059 -16.41,9.173L0,6.348Z" style="fill:rgb(167,169,172);"/>
    </g>
    <g transform="matrix(0.593803,0,0,0.593803,324.947,265.937)">
        <path d="M0,0.576L0.423,-2.355L0.424,-2.364L-15.986,0.461L-15.995,0.505C-16.163,1.277 -16.339,2.083 -16.527,2.94L0,0.576Z" style="fill:rgb(109,110,113);"/>
    </g>
    <g transform="matrix(-0.586537,0.0926087,0.0926087,0.586537,323.277,272.891)">
        <path d="M-77.156,14.589L2.115,14.589L-4.183,-7.304L-78.009,-6.434C-78.195,0.704 -77.769,7.746 -77.156,14.589Z" style="fill:rgb(35,31,32);stroke:rgb(35,31,32);stroke-width:0.95px;stroke-linejoin:miter;"/>
    </g>
    <g transform="matrix(0.593803,0,0,0.593803,343.666,279.388)">
        <path d="M0,-22.749L-21.8,-19.619C-24.259,-19.266 -26.364,-16.909 -26.479,-14.383L-26.95,-3.951C-27.064,-1.425 -25.146,0.354 -22.686,-0L-0.887,-3.131C1.573,-3.483 3.679,-5.84 3.793,-8.366L4.265,-18.797C4.379,-21.324 2.46,-23.103 0,-22.749Z" style="fill:rgb(188,190,192);stroke:rgb(35,31,32);stroke-width:0.95px;stroke-linejoin:miter;"/>
    </g>
    <g transform="matrix(0.593803,0,0,0.593803,364.995,276.333)">
        <path d="M0,-22.749L-21.799,-19.619C-24.259,-19.266 -26.364,-16.909 -26.479,-14.383L-26.95,-3.951C-27.064,-1.425 -25.146,0.354 -22.686,-0L-0.887,-3.13C1.573,-3.483 3.679,-5.84 3.793,-8.366L4.265,-18.797C4.379,-21.324 2.46,-23.103 0,-22.749Z" style="fill:rgb(188,190,192);stroke:rgb(35,31,32);stroke-width:0.95px;stroke-linejoin:miter;"/>
    </g>
    <g transform="matrix(-0.593198,-0.0267906,-0.0267906,0.593198,357.182,274.076)">
        <path d="M-0.348,-15.441C3.909,-15.249 7.36,-11.634 7.359,-7.369C7.361,-3.102 3.909,0.2 -0.348,0.008C-4.605,-0.184 -8.057,-3.799 -8.056,-8.065C-8.058,-12.331 -4.606,-15.633 -0.348,-15.441" style="fill:white;"/>
    </g>
    <g transform="matrix(-0.593198,-0.0267906,-0.0267906,0.593198,357.182,274.076)">
        <path d="M-0.348,-15.441C3.909,-15.249 7.36,-11.634 7.359,-7.369C7.361,-3.102 3.909,0.2 -0.348,0.008C-4.605,-0.184 -8.057,-3.799 -8.056,-8.065C-8.058,-12.331 -4.606,-15.633 -0.348,-15.441Z" style="fill:none;fill-rule:nonzero;stroke:rgb(35,31,32);stroke-width:0.95px;stroke-linejoin:miter;"/>
    </g>
    <g transform="matrix(-0.593198,-0.0267906,-0.0267906,0.593198,336.434,276.94)">
        <path d="M-0.348,-15.441C3.909,-15.249 7.361,-11.634 7.36,-7.368C7.361,-3.102 3.91,0.2 -0.348,0.008C-4.604,-0.184 -8.056,-3.798 -8.056,-8.064C-8.057,-12.33 -4.605,-15.633 -0.348,-15.441" style="fill:white;"/>
    </g>
    <g transform="matrix(-0.593198,-0.0267906,-0.0267906,0.593198,336.434,276.94)">
        <path d="M-0.348,-15.441C3.909,-15.249 7.361,-11.634 7.36,-7.368C7.361,-3.102 3.91,0.2 -0.348,0.008C-4.604,-0.184 -8.056,-3.798 -8.056,-8.064C-8.057,-12.33 -4.605,-15.633 -0.348,-15.441Z" style="fill:none;fill-rule:nonzero;stroke:rgb(35,31,32);stroke-width:0.95px;stroke-linejoin:miter;"/>
    </g>
    <g transform="matrix(-0.583754,0.108778,0.108778,0.583754,327.353,266.735)">
        <path d="M-69.064,-12.629L-0.452,-12.629L1.368,-6.417L-61.712,-6.226C-66.39,-6.22 -68.455,-8.243 -69.064,-12.629Z" style="fill:rgb(67,82,90);stroke:rgb(35,31,32);stroke-width:0.95px;stroke-linejoin:miter;"/>
    </g>
    <g transform="matrix(0.593803,0,0,0.593803,203.982,276.885)">
        <path d="M0,-22.812C-0.511,-22.812 -2.236,-22.678 -3.834,-20.805C-5.432,-18.932 -6.187,-18.306 -4.729,-14.383L-0.575,-3.21C-0.153,-2.078 1.15,0 6.071,0L32.227,0C37.147,0 38.451,-2.078 38.873,-3.21L43.026,-14.383C44.485,-18.306 43.729,-18.932 42.132,-20.805C40.534,-22.678 38.809,-22.812 38.298,-22.812L0,-22.812Z" style="fill:rgb(147,149,152);stroke:rgb(35,31,32);stroke-width:0.48px;stroke-linejoin:miter;"/>
    </g>
    <g transform="matrix(0.593803,0,0,0.593803,225.182,276.291)">
        <path d="M0,-21.312C0.459,-21.312 2.011,-21.187 3.448,-19.437C4.885,-17.687 5.564,-17.103 4.253,-13.437L0.517,-3C0.138,-1.941 -1.034,0 -5.46,0L-27.646,0C-32.071,0 -33.244,-1.941 -33.623,-3L-37.359,-13.437C-38.671,-17.103 -37.991,-17.687 -36.554,-19.437C-35.117,-21.187 -33.565,-21.312 -33.105,-21.312L0,-21.312Z" style="fill:rgb(65,64,66);stroke:rgb(35,31,32);stroke-width:0.48px;stroke-linejoin:miter;"/>
    </g>
    <g transform="matrix(0.593803,0,0,0.593803,222.957,274.217)">
        <path d="M0,-15.01C0.156,-15.165 0.391,-15.156 0.626,-15.307C0.413,-15.35 -1.108,-15.612 -1.154,-15.626L-1.244,-16.023C-2.299,-16.097 -3.012,-16.187 -3.905,-15.492C-4.332,-15.161 -4.796,-14.783 -5.138,-14.431L-5.738,-13.85C-5.963,-13.651 -6.089,-13.489 -6.303,-13.274C-6.676,-12.899 -7.789,-11.581 -8.168,-11.109L-8.175,-11.109C-8.903,-9.966 -9.659,-10.016 -10.932,-9.847C-13.051,-9.567 -15.63,-9.203 -17.629,-8.72C-20.692,-7.98 -24.39,-2.344 -26.12,-0.461C-26.255,-0.315 -26.337,-0.277 -26.436,-0.114C-27.041,-0.105 -27.512,-0.11 -27.845,0.195L-28.557,1.061C-28.248,1.101 -27.735,1.074 -27.405,1.074C-27.228,1.074 -26.987,1.088 -26.817,1.077C-26.578,1.062 -26.636,1.003 -26.492,0.848C-26.144,0.478 -25.798,0.083 -25.467,-0.287L-24.496,-1.378L-24.078,-1.233C-24.223,-0.771 -24.783,0.943 -24.812,1.177L-20.613,1.177C-20.542,0.678 -20.685,0.398 -21.047,0.223C-21.315,0.094 -21.784,-0.068 -22.082,-0.143C-21.964,-0.54 -21.481,-1.311 -21.247,-1.616C-20.795,-2.207 -18.352,-3.214 -17.464,-3.751C-16.854,-4.131 -16.582,-4.463 -14.646,-4.3C-14.402,-4.28 -13.771,-4.239 -12.947,-4.186C-12.697,-4.165 -12.451,-4.146 -12.211,-4.129C-10.989,-4.044 -9.763,-3.948 -8.552,-3.848C-7.253,-3.74 -6.803,-3.619 -6.483,-2.163C-6.237,-1.039 -6.297,0.014 -6.235,1.177L-2.427,1.177C-2.394,0.696 -2.454,0.413 -2.907,0.197C-3.197,0.058 -3.541,-0.04 -3.879,-0.135C-3.873,-0.324 -2.977,-3.158 -2.844,-3.592C-2.724,-3.985 -2.759,-3.851 -2.357,-3.983C-1.814,-4.16 -1.281,-4.492 -1.105,-4.986C-0.816,-5.797 -0.421,-7.539 -0.232,-8.426C-0.121,-8.952 0.054,-9.659 0.087,-10.211C0.105,-10.261 0.159,-10.406 0.226,-10.581C0.859,-10.413 1.75,-10.272 2.149,-10.248C2.237,-10.452 2.328,-10.6 2.396,-10.85C2.444,-11.031 2.405,-10.995 2.383,-11.087C2.351,-11.219 2.414,-11.323 2.389,-11.625C2.316,-11.544 2.112,-11.239 2.073,-11.175C0.687,-11.559 0.819,-13.474 2.319,-13.46C2.589,-13.048 2.419,-13.433 2.67,-12.841C2.714,-13.037 2.672,-13.303 2.736,-13.462C2.793,-13.602 2.737,-13.356 2.795,-13.592C2.865,-13.881 2.8,-14.735 2.707,-14.944C0.995,-15.113 1.706,-15.1 0,-15.01" style="fill:white;"/>
    </g>
    <g transform="matrix(0.593803,0,0,0.593803,109.566,269.458)">
        <path d="M0,49.463L18.663,66.145C17.646,52.228 16.015,38.234 13.904,24.837C11.729,11.03 9.045,-2.154 5.996,-13.987L5.959,-13.987L-8.98,-16.975L0,49.463ZM18.826,67.237L-0.665,49.816C-3.69,27.253 -6.757,4.693 -9.813,-17.865L6.029,-14.696L6.542,-14.696L6.611,-14.431C9.692,-2.513 12.406,10.791 14.602,24.73C16.761,38.434 18.418,52.745 19.431,66.949L19.458,67.328L18.928,67.328L18.826,67.237Z"/>
    </g>
    <g transform="matrix(-0.0710532,0.589536,0.589536,0.0710532,320.388,297.635)">
        <path d="M-19.667,-24.436L22.637,-24.436L21.755,-17.114L-20.636,-17.439L-19.667,-24.436Z" style="fill:rgb(88,89,91);"/>
    </g>
    <g transform="matrix(0.593803,0,0,0.593803,320.393,269.458)">
        <path d="M0,49.463L-18.662,66.145C-17.646,52.228 -16.014,38.234 -13.903,24.837C-11.729,11.03 -9.044,-2.154 -5.995,-13.987L-5.958,-13.987L8.981,-16.975L0,49.463ZM-18.825,67.237L0.666,49.816C3.69,27.253 6.757,4.693 9.814,-17.865L-6.029,-14.696L-6.542,-14.696L-6.61,-14.431C-9.691,-2.513 -12.406,10.791 -14.601,24.73C-16.76,38.434 -18.417,52.745 -19.43,66.949L-19.457,67.328L-18.928,67.328L-18.825,67.237Z"/>
    </g>
    <g transform="matrix(0.593803,0,0,0.593803,69.4922,299.533)">
        <path d="M0,-351.496C-18.095,-250.109 -20.827,-193.839 -26.727,-83.579C-33.896,-35.225 -33.967,4.116 -31.878,52.701C-30.76,47.826 -27.955,42.951 -25.525,38.451C-31.455,12.891 -25.156,-55.635 -19.827,-82.982C-14.278,-168.057 -10.153,-255.74 5.398,-339.628C9.888,-363.842 10.755,-399.7 39.566,-403.02C13.073,-404.197 3.429,-370.703 0,-351.496" style="fill:rgb(239,235,235);"/>
    </g>
    <g transform="matrix(0.593803,0,0,0.593803,69.4922,299.533)">
        <path d="M0,-351.496C-18.095,-250.109 -20.827,-193.839 -26.727,-83.579C-33.896,-35.225 -33.967,4.116 -31.878,52.701C-30.76,47.826 -27.955,42.951 -25.525,38.451C-31.455,12.891 -25.156,-55.635 -19.827,-82.982C-14.278,-168.057 -10.153,-255.74 5.398,-339.628C9.888,-363.842 10.755,-399.7 39.566,-403.02C13.073,-404.197 3.429,-370.703 0,-351.496Z" style="fill:none;fill-rule:nonzero;stroke:rgb(35,31,32);stroke-width:3.58px;"/>
    </g>
    <g transform="matrix(0.593803,0,0,0.593803,209.368,58.2136)">
        <path d="M0,7.547C-2.117,2.895 -1.36,0.046 -0.453,-1.568C0.454,-3.182 1.513,-6.125 5.898,-6.125L13.004,-6.125C17.39,-6.125 18.448,-3.182 19.356,-1.568C20.264,0.046 21.02,2.895 18.902,7.547C17.069,11.576 12.547,13.498 9.451,13.59C6.739,13.672 1.834,11.576 0,7.547" style="fill:rgb(35,31,32);"/>
    </g>
    <g transform="matrix(0.593803,0,0,0.593803,209.368,58.2136)">
        <path d="M0,7.547C-2.117,2.895 -1.36,0.046 -0.453,-1.568C0.454,-3.182 1.513,-6.125 5.898,-6.125L13.004,-6.125C17.39,-6.125 18.448,-3.182 19.356,-1.568C20.264,0.046 21.02,2.895 18.902,7.547C17.069,11.576 12.547,13.498 9.451,13.59C6.739,13.672 1.834,11.576 0,7.547Z" style="fill:none;fill-rule:nonzero;stroke:rgb(35,31,32);stroke-width:0.95px;stroke-linejoin:miter;"/>
    </g>
    <g transform="matrix(0.593803,0,0,0.593803,212.598,44.5805)">
        <path d="M0,24.196C0,24.196 2.404,3.184 2.374,2.618C2.345,2.05 3.202,-0.154 3.202,-0.154L4.726,-0.195L5.761,2.699L8.023,24.391L0,24.196Z" style="fill:rgb(35,31,32);"/>
    </g>
    <g transform="matrix(0.593803,0,0,0.593803,214.426,9.2269)">
        <path d="M0,60.302L0.309,17.889L0.288,7.411C0.08,7.135 -0.328,6.862 -0.314,6.506L-0.102,0.97C-0.064,0 1.953,0.062 1.986,0.967L2.18,6.449C2.194,6.855 1.868,7.091 1.717,7.411L1.561,59.977L0,60.302Z" style="fill:rgb(35,31,32);"/>
    </g>
    <g transform="matrix(0.593803,0,0,0.593803,51.873,391.393)">
        <path d="M0,-108.061C-1.851,-104.756 -2.859,-99.137 -3.086,-94.962C-4.193,-74.539 -3.354,-31.429 1.346,-15.941C3.022,-10.412 3.661,-4.66 16.507,-3.722C30.246,-2.72 119.106,1.415 158.65,1.415L390.782,1.415C430.325,1.415 519.186,-2.72 532.925,-3.722C545.771,-4.66 546.41,-10.412 548.087,-15.941C552.785,-31.429 553.626,-74.539 552.519,-94.962C552.292,-99.138 551.283,-104.757 549.433,-108.061C529.389,-100.565 473.233,-97.813 451.236,-96.327L442.017,-105.352C439.138,-108.169 434.685,-109.476 430.657,-109.476L118.775,-109.476C114.747,-109.476 110.294,-108.169 107.415,-105.352L98.195,-96.327C76.198,-97.813 20.044,-100.565 0,-108.061Z" style="fill:none;fill-rule:nonzero;stroke:rgb(35,31,32);stroke-width:2.39px;stroke-linejoin:miter;"/>
    </g>
    <g transform="matrix(0.593803,0,0,0.593803,51.873,382.425)">
        <path d="M0,-92.958C-1.851,-89.653 -2.859,-84.034 -3.086,-79.859C-4.043,-62.205 -3.544,-27.604 -0.357,-8.54C53.537,0.177 130.578,1.415 185.999,1.415L363.434,1.415C418.854,1.415 495.896,0.178 549.79,-8.54C552.978,-27.604 553.476,-62.205 552.519,-79.859C552.292,-84.035 551.283,-89.654 549.433,-92.958C529.389,-85.462 473.234,-82.71 451.237,-81.224L442.017,-90.249C439.139,-93.066 434.686,-94.373 430.657,-94.373L118.775,-94.373C114.747,-94.373 110.294,-93.066 107.416,-90.249L98.195,-81.224C76.198,-82.71 20.044,-85.462 0,-92.958Z" style="fill:rgb(65,64,66);stroke:rgb(35,31,32);stroke-width:2.39px;stroke-linejoin:miter;"/>
    </g>
    <g transform="matrix(0.593803,0,0,0.593803,83.3736,344.473)">
        <path d="M0,61.357C44.664,64.72 94.115,65.329 132.95,65.329L310.385,65.329C349.22,65.329 398.671,64.72 443.335,61.357L397.694,2.157C395.198,-1.081 393.273,-3.972 375.591,-3.972L67.744,-3.972C50.061,-3.972 48.137,-1.081 45.64,2.157L0,61.357Z" style="fill:rgb(51,49,50);stroke:rgb(35,31,32);stroke-width:2.39px;stroke-linejoin:miter;"/>
    </g>
    <g transform="matrix(0.593803,0,0,0.593803,51.6608,392.233)">
        <path d="M0,-25.058C0.5,-22.068 1.065,-19.456 1.703,-17.356C3.38,-11.827 4.019,-6.075 16.864,-5.137C30.604,-4.135 119.464,0 159.008,0L391.14,0C430.683,0 519.543,-4.135 533.282,-5.137C546.129,-6.075 546.768,-11.827 548.444,-17.356C549.082,-19.456 549.647,-22.068 550.147,-25.058C496.253,-16.34 419.211,-15.103 363.791,-15.103L186.356,-15.103C130.936,-15.103 53.894,-16.34 0,-25.058Z" style="fill:rgb(65,64,66);stroke:rgb(35,31,32);stroke-width:0.95px;stroke-linejoin:miter;"/>
    </g>
    <g transform="matrix(0.593803,0,0,0.593803,80.2312,385.226)">
        <path d="M0,8.306C33.371,9.852 83.75,11.8 110.894,11.8L343.025,11.8C370.169,11.8 420.548,9.852 453.918,8.306L451.307,0.671C450.232,-2.469 446.517,-3.494 442.114,-3.159C392.625,0.601 359.858,1.054 292.958,1.054L160.961,1.054C94.061,1.054 61.293,0.601 11.804,-3.159C7.402,-3.494 3.687,-2.469 2.612,0.671L0,8.306Z" style="fill:rgb(35,31,32);stroke:rgb(35,31,32);stroke-width:0.95px;stroke-linejoin:miter;"/>
    </g>
    <g transform="matrix(0.593803,0,0,0.593803,319.815,329.717)">
        <path d="M0,7.533L-9.214,-1.487C-12.093,-4.304 -16.546,-5.611 -20.573,-5.611L-332.455,-5.611C-336.483,-5.611 -340.937,-4.304 -343.815,-1.487L-353.029,7.533C-350.694,11.855 -347.439,13.144 -346.876,13.144L-6.153,13.144C-5.59,13.144 -2.334,11.855 0,7.533Z" style="fill:rgb(51,49,50);stroke:rgb(35,31,32);stroke-width:1.19px;stroke-linejoin:miter;"/>
    </g>
    <g transform="matrix(0.593803,0,0,0.593803,287.908,337.523)">
        <path d="M0,-18.755L-250.377,-18.755L-250.377,0L0,0L0,-18.755Z" style="fill:rgb(35,31,32);"/>
    </g>
    <g transform="matrix(0.593803,0,0,0.593803,140.665,337.523)">
        <path d="M0,-18.755L-2.41,-18.755L-2.41,0L0,0L0,-18.755Z" style="fill:rgb(88,89,91);"/>
    </g>
    <g transform="matrix(0.593803,0,0,0.593803,287.908,337.523)">
        <path d="M0,-18.755L-2.41,-18.755L-2.41,0L0,0L0,-18.755Z" style="fill:rgb(88,89,91);"/>
    </g>
    <g transform="matrix(0.593803,0,0,0.593803,160.712,337.523)">
        <path d="M0,-18.755L-2.411,-18.755L-2.411,0L0,0L0,-18.755Z" style="fill:rgb(88,89,91);"/>
    </g>
    <g transform="matrix(0.593803,0,0,0.593803,181.712,337.523)">
        <path d="M0,-18.755L-2.411,-18.755L-2.411,0L0,0L0,-18.755Z" style="fill:rgb(88,89,91);"/>
    </g>
    <g transform="matrix(0.593803,0,0,0.593803,204.861,337.523)">
        <path d="M0,-18.755L-2.411,-18.755L-2.411,0L0,0L0,-18.755Z" style="fill:rgb(88,89,91);"/>
    </g>
    <g transform="matrix(0.593803,0,0,0.593803,266.431,337.523)">
        <path d="M0,-18.755L2.41,-18.755L2.41,0L0,0L0,-18.755Z" style="fill:rgb(88,89,91);"/>
    </g>
    <g transform="matrix(0.593803,0,0,0.593803,245.43,337.523)">
        <path d="M0,-18.755L2.41,-18.755L2.41,0L0,0L0,-18.755Z" style="fill:rgb(88,89,91);"/>
    </g>
    <g transform="matrix(0.593803,0,0,0.593803,222.282,337.523)">
        <path d="M0,-18.755L2.411,-18.755L2.411,0L0,0L0,-18.755Z" style="fill:rgb(88,89,91);"/>
    </g>
    <g transform="matrix(0.593803,0,0,0.593803,-1162.47,-309.494)">
        <rect x="2194.01" y="1133.67" width="251.475" height="32.426" style="fill:rgb(35,31,32);stroke:rgb(35,31,32);stroke-width:0.95px;stroke-linejoin:miter;"/>
    </g>
    <g transform="matrix(0.593803,0,0,0.593803,-1162.47,-309.494)">
        <rect x="2264.35" y="1133.67" width="2.927" height="32.426" style="fill:rgb(88,89,91);"/>
    </g>
    <g transform="matrix(0.593803,0,0,0.593803,-1162.47,-309.494)">
        <rect x="2228.82" y="1133.67" width="2.928" height="32.426" style="fill:rgb(88,89,91);"/>
    </g>
    <g transform="matrix(0.593803,0,0,0.593803,-1162.47,-309.494)">
        <rect x="2407.74" y="1133.67" width="2.928" height="32.426" style="fill:rgb(88,89,91);"/>
    </g>
    <g transform="matrix(0.593803,0,0,0.593803,-1162.47,-309.494)">
        <rect x="2372.21" y="1133.67" width="2.927" height="32.426" style="fill:rgb(88,89,91);"/>
    </g>
    <g transform="matrix(0.593803,0,0,0.593803,159.921,354.641)">
        <path d="M0,9.646C2.656,9.646 4.822,7.48 4.822,4.823C4.822,2.167 2.656,0 0,0C-2.656,0 -4.822,2.167 -4.822,4.823C-4.822,7.48 -2.656,9.646 0,9.646" style="fill:rgb(35,31,32);"/>
    </g>
    <g transform="matrix(0.593803,0,0,0.593803,159.921,354.641)">
        <path d="M0,9.646C2.656,9.646 4.822,7.48 4.822,4.823C4.822,2.167 2.656,0 0,0C-2.656,0 -4.822,2.167 -4.822,4.823C-4.822,7.48 -2.656,9.646 0,9.646Z" style="fill:none;fill-rule:nonzero;stroke:rgb(35,31,32);stroke-width:0.95px;stroke-linejoin:miter;"/>
    </g>
    <g transform="matrix(0.593803,0,0,0.593803,159.921,355.692)">
        <path d="M0,6.107C1.682,6.107 3.054,4.735 3.054,3.052C3.054,1.371 1.682,0 0,0C-1.683,0 -3.054,1.371 -3.054,3.052C-3.054,4.735 -1.683,6.107 0,6.107" style="fill:rgb(109,110,113);"/>
    </g>
    <g transform="matrix(0.593803,0,0,0.593803,159.921,355.692)">
        <path d="M0,6.107C1.682,6.107 3.054,4.735 3.054,3.052C3.054,1.371 1.682,0 0,0C-1.683,0 -3.054,1.371 -3.054,3.052C-3.054,4.735 -1.683,6.107 0,6.107Z" style="fill:none;fill-rule:nonzero;stroke:rgb(35,31,32);stroke-width:0.95px;stroke-linejoin:miter;"/>
    </g>
    <g transform="matrix(0.593803,0,0,0.593803,270.079,354.641)">
        <path d="M0,9.646C2.657,9.646 4.823,7.48 4.823,4.823C4.823,2.167 2.657,0 0,0C-2.656,0 -4.822,2.167 -4.822,4.823C-4.822,7.48 -2.656,9.646 0,9.646" style="fill:rgb(35,31,32);"/>
    </g>
    <g transform="matrix(0.593803,0,0,0.593803,270.079,354.641)">
        <path d="M0,9.646C2.657,9.646 4.823,7.48 4.823,4.823C4.823,2.167 2.657,0 0,0C-2.656,0 -4.822,2.167 -4.822,4.823C-4.822,7.48 -2.656,9.646 0,9.646Z" style="fill:none;fill-rule:nonzero;stroke:rgb(35,31,32);stroke-width:0.95px;stroke-linejoin:miter;"/>
    </g>
    <g transform="matrix(0.593803,0,0,0.593803,270.079,355.692)">
        <path d="M0,6.107C1.683,6.107 3.055,4.735 3.055,3.052C3.055,1.371 1.683,0 0,0C-1.682,0 -3.054,1.371 -3.054,3.052C-3.054,4.735 -1.682,6.107 0,6.107" style="fill:rgb(109,110,113);"/>
    </g>
    <g transform="matrix(0.593803,0,0,0.593803,270.079,355.692)">
        <path d="M0,6.107C1.683,6.107 3.055,4.735 3.055,3.052C3.055,1.371 1.683,0 0,0C-1.682,0 -3.054,1.371 -3.054,3.052C-3.054,4.735 -1.682,6.107 0,6.107Z" style="fill:none;fill-rule:nonzero;stroke:rgb(35,31,32);stroke-width:0.95px;stroke-linejoin:miter;"/>
    </g>
    <g transform="matrix(0.593803,0,0,0.593803,107.236,352.658)">
        <path d="M0,-4.555L362.961,-4.555L366.473,0L-3.512,0L0,-4.555Z" style="fill:rgb(128,130,133);stroke:rgb(35,31,32);stroke-width:0.95px;stroke-linejoin:miter;"/>
    </g>
    <g transform="matrix(0.593803,0,0,0.593803,140.782,372.332)">
        <path d="M0,-1.784C-27.249,-1.784 -57.309,-2.42 -82.035,-4.555L-85.258,-0.375C-61.363,1.891 -28.234,2.771 0,2.771L249.976,2.771C278.21,2.771 311.339,1.891 335.233,-0.375L332.011,-4.555C307.283,-2.419 277.225,-1.784 249.976,-1.784L0,-1.784Z" style="fill:rgb(128,130,133);stroke:rgb(35,31,32);stroke-width:0.95px;stroke-linejoin:miter;"/>
    </g>
    <g transform="matrix(0.593803,0,0,0.593803,-1162.47,-306.99)">
        <rect x="2300.56" y="1134.93" width="38.357" height="25.699" style="fill:rgb(147,149,152);stroke:rgb(35,31,32);stroke-width:0.95px;stroke-linejoin:miter;"/>
    </g>
    <g transform="matrix(0.593803,0,0,0.593803,-1162.47,-306.991)">
        <rect x="2302.7" y="1136.75" width="34.078" height="22.062" style="fill:rgb(109,110,113);stroke:rgb(35,31,32);stroke-width:0.95px;stroke-linejoin:miter;"/>
    </g>
    <g transform="matrix(0.593803,0,0,0.593803,140.782,362.398)">
        <path d="M0,-2.738C-22.664,-2.738 -47.271,-3.178 -69.139,-4.554L-72.421,-0.297C-50.307,1.209 -23.463,1.816 0,1.816L249.976,1.816C273.438,1.816 300.281,1.209 322.396,-0.297L319.114,-4.554C297.247,-3.178 272.64,-2.738 249.976,-2.738L0,-2.738Z" style="fill:rgb(128,130,133);stroke:rgb(35,31,32);stroke-width:0.95px;stroke-linejoin:miter;"/>
    </g>
    <g transform="matrix(0.593803,0,0,0.593803,105.325,372.075)">
        <path d="M0,-51.179L7.88,-43.317L-35.082,12.409C-41.128,12.592 -48.228,12.141 -52.726,11.634L-83.593,8.149C-86.175,7.858 -89.298,7.13 -89.784,1.354C-90.462,-6.705 -91.207,-41.404 -90.956,-49.205C-90.704,-57.007 -89.807,-63.771 -80.738,-63.472C-71.418,-63.164 -19.521,-59.078 -14.53,-58.383C-9.614,-57.699 -5.112,-56.279 0,-51.179Z" style="fill:none;fill-rule:nonzero;stroke:rgb(35,31,32);stroke-width:1.19px;stroke-linejoin:miter;"/>
    </g>
    <g transform="matrix(0.593803,0,0,0.593803,104.785,370.647)">
        <path d="M0,-48.623L-41.023,3.475C-44.347,7.695 -46.316,11.187 -53.169,10.655L-80.654,8.524C-83.247,8.323 -86.359,7.505 -86.846,1.73C-87.525,-6.331 -88.607,-38.322 -88.355,-46.124C-88.104,-53.926 -87.207,-59.81 -78.138,-59.479C-69.662,-59.171 -18.348,-55.596 -13.355,-54.898C-8.437,-54.211 -2.769,-52.649 0,-48.623" style="fill:rgb(88,89,91);"/>
    </g>
    <g transform="matrix(0.593803,0,0,0.593803,102.814,370.605)">
        <path d="M0,-46.778L-37.832,1.816C-40.82,5.654 -42.613,8.813 -48.803,8.33L-73.63,6.397C-75.972,6.214 -78.782,5.472 -79.222,0.233C-79.835,-7.079 -80.813,-36.1 -80.586,-43.177C-80.358,-50.256 -79.548,-55.591 -71.356,-55.293C-63.7,-55.013 -17.345,-51.802 -12.841,-51.137C-5.381,-50.036 -2.495,-47.912 -0.232,-48.109C1.352,-48.247 0.626,-47.496 0,-46.778" style="fill:rgb(65,64,66);"/>
    </g>
    <g transform="matrix(0.593803,0,0,0.593803,102.793,371.287)">
        <path d="M0,-48.949C-0.01,-49.056 -0.013,-49.004 -0.021,-48.9C-0.007,-48.918 0.001,-48.933 0,-48.949M-38.396,0.201L-0.564,-48.392L-0.482,-48.485C-1.552,-48.481 -2.693,-48.863 -4.257,-49.387C-6.217,-50.045 -8.889,-50.941 -12.915,-51.535C-15.003,-51.843 -26.223,-52.708 -38.365,-53.57C-52.247,-54.555 -67.304,-55.537 -71.348,-55.684C-75.11,-55.822 -77.154,-54.707 -78.267,-52.773C-79.438,-50.737 -79.684,-47.736 -79.794,-44.303C-79.902,-40.919 -79.733,-32.472 -79.461,-23.798C-79.167,-14.434 -78.75,-4.792 -78.43,-0.978C-78.23,1.405 -77.527,2.736 -76.623,3.479C-75.732,4.209 -74.587,4.41 -73.538,4.492L-48.711,6.425C-43.463,6.834 -41.587,4.377 -39.148,1.182L-38.396,0.201ZM0.634,-47.462L-37.198,1.133L-37.944,2.102C-40.666,5.668 -42.76,8.41 -48.824,7.938L-73.651,6.005C-74.943,5.904 -76.374,5.642 -77.584,4.648C-78.781,3.664 -79.703,2.002 -79.942,-0.853C-80.261,-4.637 -80.678,-14.318 -80.974,-23.75C-81.247,-32.451 -81.416,-40.933 -81.307,-44.349C-81.189,-47.993 -80.916,-51.2 -79.578,-53.526C-78.181,-55.955 -75.723,-57.359 -71.295,-57.198C-67.183,-57.048 -52.11,-56.066 -38.259,-55.083C-26.08,-54.218 -14.816,-53.349 -12.695,-53.036C-8.553,-52.425 -5.797,-51.501 -3.776,-50.823C-2.223,-50.303 -1.135,-49.938 -0.263,-50.013C0.978,-50.122 1.455,-49.737 1.513,-49.08C1.562,-48.521 1.126,-48.022 0.687,-47.523L0.634,-47.462Z" style="fill:rgb(35,31,32);"/>
    </g>
    <g transform="matrix(0.593803,0,0,0.593803,82.7264,373.964)">
        <path d="M0,-10.936L-5.485,-3.89C-8.395,-0.153 -10.143,2.943 -16.167,2.454L-39.336,0.571C-41.614,0.385 -44.353,-0.33 -44.78,-5.431C-44.927,-7.18 -45.095,-10.208 -45.263,-13.879L0,-10.936Z" style="fill:rgb(188,190,192);"/>
    </g>
    <g transform="matrix(0.593803,0,0,0.593803,-1162.47,-61.1648)">
        <path d="M2050.23,683.95C2050.14,686.816 2050.24,693.281 2050.44,700.445L2112.41,703.991L2130.76,680.424C2132.13,678.95 2132.23,678.912 2130.51,679.024C2128.26,679.172 2125.36,677.081 2117.97,675.99C2113.47,675.326 2067.12,672.114 2059.46,671.835C2059.24,671.827 2059.03,671.823 2058.82,671.823C2051.22,671.823 2050.45,677.061 2050.23,683.95Z" style="fill:url(#_Linear1);fill-rule:nonzero;"/>
    </g>
    <g transform="matrix(0.592632,0.0372709,0.0372709,-0.592632,55.4588,352.611)">
        <path d="M-0.546,-1.973L61.844,-1.973L50.213,-18.164L1.001,-18.019C0.476,-12.959 -0.079,-7.209 -0.546,-1.973" style="fill:rgb(35,31,32);"/>
    </g>
    <g transform="matrix(0.592558,0.0384269,0.0384269,-0.592558,55.5219,353.996)">
        <path d="M-0.563,-2.001L60.784,-2.001L49.562,-18.189L1.186,-18.044C0.591,-12.814 0.051,-8.535 -0.563,-2.001" style="fill:rgb(88,89,91);"/>
    </g>
    <g transform="matrix(0.592604,0.037707,0.037707,-0.592604,55.1722,344.67)">
        <path d="M-0.236,-2.327L72.913,-2.327L69.243,-7.675L0.139,-7.674C-0.025,-5.588 -0.155,-3.762 -0.236,-2.327" style="fill:rgb(65,64,66);"/>
    </g>
    <g transform="matrix(-0.592729,0.0356923,0.0356923,0.592729,79.3817,365.273)">
        <path d="M0.303,-10.056C-1.913,-9.923 -3.709,-7.561 -3.709,-4.782C-3.71,-2.002 -1.913,0.143 0.303,0.009C2.517,-0.124 4.314,-2.486 4.314,-5.266C4.315,-8.045 2.518,-10.19 0.303,-10.056" style="fill:rgb(65,64,66);"/>
    </g>
    <g transform="matrix(-0.592729,0.0356923,0.0356923,0.592729,79.3817,365.273)">
        <path d="M0.303,-10.056C-1.913,-9.923 -3.709,-7.561 -3.709,-4.782C-3.71,-2.002 -1.913,0.143 0.303,0.009C2.517,-0.124 4.314,-2.486 4.314,-5.266C4.315,-8.045 2.518,-10.19 0.303,-10.056Z" style="fill:none;fill-rule:nonzero;stroke:rgb(35,31,32);stroke-width:0.95px;stroke-linejoin:miter;"/>
    </g>
    <g transform="matrix(-0.592731,0.0356548,0.0356548,0.592731,79.2881,364.501)">
        <path d="M0.224,-7.438C-1.416,-7.339 -2.743,-5.593 -2.744,-3.538C-2.743,-1.482 -1.416,0.105 0.224,0.007C1.862,-0.092 3.19,-1.839 3.191,-3.894C3.19,-5.95 1.863,-7.536 0.224,-7.438" style="fill:rgb(35,31,32);"/>
    </g>
    <g transform="matrix(-0.592731,0.0356548,0.0356548,0.592731,79.2881,364.501)">
        <path d="M0.224,-7.438C-1.416,-7.339 -2.743,-5.593 -2.744,-3.538C-2.743,-1.482 -1.416,0.105 0.224,0.007C1.862,-0.092 3.19,-1.839 3.191,-3.894C3.19,-5.95 1.863,-7.536 0.224,-7.438Z" style="fill:none;fill-rule:nonzero;stroke:rgb(35,31,32);stroke-width:0.95px;stroke-linejoin:miter;"/>
    </g>
    <g transform="matrix(0.593803,0,0,0.593803,104.785,376.328)">
        <path d="M0,-58.189L-41.023,-6.091C-44.347,-1.871 -46.316,1.621 -53.169,1.089L-80.654,-1.042C-83.247,-1.243 -86.359,-2.061 -86.846,-7.836C-86.88,-8.243 -86.915,-8.712 -86.951,-9.234C-86.314,-3.965 -82.599,-3.37 -80.095,-3.161L-54.618,-1.029C-47.769,-0.457 -44.985,-4.708 -42.231,-8.291L-4.229,-57.747C-1.997,-59.81 -0.647,-59.13 0,-58.189" style="fill:rgb(128,130,133);"/>
    </g>
    <g transform="matrix(0.593803,0,0,0.593803,80.0705,340.071)">
        <path d="M0,54.498L40.668,2.852C39.38,1.211 37.531,0.032 35.461,-0.82C33.153,-1.771 30.568,-2.319 28.161,-2.655C25.792,-2.986 12.792,-3.98 -1.046,-4.958C-16.124,-6.023 -32.164,-7.072 -36.545,-7.231C-40.745,-7.384 -43.03,-6.139 -44.277,-3.98C-45.583,-1.719 -45.857,1.599 -45.979,5.392C-46.1,9.124 -45.912,18.438 -45.61,28.004C-45.285,38.328 -44.823,48.957 -44.469,53.159C-44.246,55.807 -43.455,57.29 -42.439,58.122C-41.434,58.944 -40.15,59.169 -38.979,59.261L-11.493,61.392C-5.664,61.843 -3.58,59.139 -0.875,55.627L0,54.498ZM42.216,3.338L1.192,55.435C0.817,55.912 0.566,56.238 0.324,56.553C-2.664,60.431 -4.967,63.419 -11.605,62.904L-39.091,60.773C-40.511,60.663 -42.08,60.377 -43.4,59.298C-44.709,58.227 -45.719,56.411 -45.981,53.284C-46.333,49.111 -46.796,38.443 -47.124,28.051C-47.426,18.459 -47.613,9.108 -47.492,5.344C-47.363,1.336 -47.062,-2.19 -45.589,-4.739C-44.058,-7.389 -41.358,-8.921 -36.491,-8.744C-32.041,-8.582 -15.988,-7.534 -0.939,-6.471C12.919,-5.49 25.956,-4.494 28.369,-4.157C30.88,-3.807 33.589,-3.23 36.036,-2.221C38.539,-1.19 40.767,0.291 42.243,2.439L42.561,2.901L42.216,3.338Z" style="fill:rgb(35,31,32);"/>
    </g>
    <g transform="matrix(0.593803,0,0,0.593803,370.311,396.819)">
        <path d="M0,-13.254C-1.598,-10.467 -4.034,-6.339 -4.947,-5.425C-6.354,-4.019 -7.993,-2.006 -13.588,-1.406C-19.214,-0.804 -38.304,0 -41.318,-0.2C-41.318,-0.2 -48.753,0 -51.566,-3.014C-53.278,-4.849 -55.586,-8.023 -57.13,-10.227C-31.455,-11.296 -9.604,-12.403 -3.345,-12.859C-2.123,-12.948 -1.012,-13.082 0,-13.254ZM-523.106,-13.254C-521.509,-10.467 -519.072,-6.339 -518.159,-5.425C-516.753,-4.019 -515.114,-2.006 -509.519,-1.406C-503.893,-0.804 -484.803,0 -481.789,-0.2C-481.789,-0.2 -474.354,0 -471.54,-3.014C-469.828,-4.849 -467.521,-8.023 -465.977,-10.227C-491.651,-11.296 -513.503,-12.403 -519.763,-12.859C-520.983,-12.948 -522.095,-13.082 -523.106,-13.254Z" style="fill:rgb(35,31,32);stroke:rgb(35,31,32);stroke-width:0.95px;stroke-linejoin:miter;"/>
    </g>
    <g transform="matrix(0.593803,0,0,0.593803,375.597,334.093)">
        <path d="M0,-19.693C-22.506,-10.047 -72.742,-2.143 -93.373,0M-540.81,-19.693C-518.304,-10.047 -468.067,-2.143 -447.437,0" style="fill:none;fill-rule:nonzero;stroke:rgb(35,31,32);stroke-width:1.19px;stroke-linejoin:miter;"/>
    </g>
    <g transform="matrix(0.593803,0,0,0.593803,53.7466,326.139)">
        <path d="M0,-19.291C16.344,-11.521 81.776,0 113.869,0L429.619,0C461.711,0 527.145,-11.521 543.488,-19.291" style="fill:none;fill-rule:nonzero;stroke:rgb(35,31,32);stroke-width:0.95px;stroke-linejoin:miter;"/>
    </g>
    <g transform="matrix(0.593803,0,0,0.593803,169.469,367.007)">
        <path d="M0,-41.183L153.354,-41.183C155.885,-41.183 157.955,-39.143 157.955,-36.649L157.955,-4.535C157.955,-2.04 155.885,0 153.354,0L0,0C-2.531,0 -4.601,-2.04 -4.601,-4.535L-4.601,-36.649C-4.601,-39.143 -2.531,-41.183 0,-41.183Z" style="fill:rgb(65,64,66);stroke:rgb(35,31,32);stroke-width:0.95px;stroke-linejoin:miter;"/>
    </g>
    <g transform="matrix(0.593803,0,0,0.593803,170.561,362.86)">
        <path d="M0,-30.424L149.232,-30.424C150.697,-30.424 151.896,-29.225 151.896,-27.759L151.896,-2.665C151.896,-1.199 150.697,0 149.232,0L0,0C-1.466,0 -2.665,-1.199 -2.665,-2.665L-2.665,-27.759C-2.665,-29.225 -1.466,-30.424 0,-30.424Z" style="fill:white;stroke:rgb(35,31,32);stroke-width:0.95px;stroke-linejoin:miter;"/>
    </g>
    <g transform="matrix(0.593803,0,0,0.593803,324.735,372.075)">
        <path d="M0,-51.179L-7.88,-43.317L35.082,12.409C41.129,12.592 48.227,12.141 52.726,11.634L83.594,8.149C86.176,7.858 89.298,7.13 89.784,1.354C90.463,-6.705 91.207,-41.404 90.956,-49.205C90.704,-57.007 89.807,-63.771 80.738,-63.472C71.418,-63.164 19.521,-59.078 14.53,-58.383C9.614,-57.699 5.112,-56.279 0,-51.179Z" style="fill:none;fill-rule:nonzero;stroke:rgb(35,31,32);stroke-width:1.19px;stroke-linejoin:miter;"/>
    </g>
    <g transform="matrix(0.593803,0,0,0.593803,325.275,370.647)">
        <path d="M0,-48.623L41.023,3.475C44.347,7.695 46.316,11.187 53.17,10.655L80.655,8.524C83.247,8.323 86.358,7.505 86.846,1.73C87.525,-6.331 88.607,-38.322 88.355,-46.124C88.104,-53.926 87.207,-59.81 78.139,-59.479C69.662,-59.171 18.348,-55.596 13.355,-54.898C8.437,-54.211 2.769,-52.649 0,-48.623" style="fill:rgb(88,89,91);"/>
    </g>
    <g transform="matrix(0.593803,0,0,0.593803,327.245,370.605)">
        <path d="M0,-46.778L37.832,1.816C40.82,5.654 42.613,8.813 48.803,8.33L73.63,6.397C75.972,6.214 78.782,5.472 79.222,0.233C79.835,-7.079 80.813,-36.1 80.586,-43.177C80.358,-50.256 79.548,-55.591 71.356,-55.293C63.701,-55.013 17.345,-51.802 12.841,-51.137C5.381,-50.036 2.495,-47.912 0.232,-48.109C-1.352,-48.247 -0.626,-47.496 0,-46.778" style="fill:rgb(65,64,66);"/>
    </g>
    <g transform="matrix(0.593803,0,0,0.593803,327.266,371.287)">
        <path d="M0,-48.949C0.01,-49.056 0.013,-49.004 0.021,-48.9C0.007,-48.918 -0.001,-48.933 0,-48.949M38.396,0.201L0.564,-48.392L0.482,-48.485C1.553,-48.481 2.693,-48.863 4.257,-49.387C6.217,-50.045 8.889,-50.941 12.915,-51.535C15.003,-51.843 26.223,-52.708 38.365,-53.57C52.247,-54.555 67.304,-55.537 71.348,-55.684C75.11,-55.822 77.154,-54.707 78.267,-52.773C79.438,-50.737 79.684,-47.736 79.794,-44.303C79.902,-40.919 79.733,-32.472 79.462,-23.798C79.167,-14.434 78.75,-4.792 78.43,-0.978C78.23,1.405 77.526,2.736 76.623,3.479C75.733,4.209 74.587,4.41 73.538,4.492L48.712,6.425C43.463,6.834 41.587,4.377 39.148,1.182L38.396,0.201ZM-0.634,-47.462L37.197,1.133L37.944,2.102C40.667,5.668 42.76,8.41 48.824,7.938L73.651,6.005C74.943,5.904 76.374,5.642 77.584,4.648C78.781,3.664 79.703,2.002 79.942,-0.853C80.261,-4.637 80.678,-14.318 80.975,-23.75C81.247,-32.451 81.416,-40.933 81.307,-44.349C81.19,-47.993 80.916,-51.2 79.578,-53.526C78.181,-55.955 75.723,-57.359 71.295,-57.198C67.183,-57.048 52.11,-56.066 38.259,-55.083C26.08,-54.218 14.816,-53.349 12.695,-53.036C8.552,-52.425 5.797,-51.501 3.775,-50.823C2.223,-50.303 1.135,-49.938 0.263,-50.013C-0.978,-50.122 -1.455,-49.737 -1.513,-49.08C-1.562,-48.521 -1.126,-48.022 -0.687,-47.523L-0.634,-47.462Z" style="fill:rgb(35,31,32);"/>
    </g>
    <g transform="matrix(0.593803,0,0,0.593803,347.333,373.964)">
        <path d="M0,-10.936L5.485,-3.89C8.395,-0.153 10.143,2.943 16.167,2.454L39.336,0.571C41.614,0.385 44.353,-0.33 44.78,-5.431C44.927,-7.18 45.095,-10.208 45.262,-13.879L0,-10.936Z" style="fill:rgb(188,190,192);"/>
    </g>
    <g transform="matrix(0.593803,0,0,0.593803,-1162.47,-61.1648)">
        <clipPath id="_clip2">
            <path d="M2580.13,671.835C2572.47,672.114 2526.12,675.326 2521.61,675.99C2514.23,677.081 2511.33,679.172 2509.07,679.024C2507.36,678.912 2507.46,678.95 2508.83,680.424L2527.18,703.991L2589.14,700.445C2589.34,693.281 2589.45,686.816 2589.36,683.95C2589.14,677.061 2588.36,671.823 2580.77,671.823C2580.56,671.823 2580.35,671.827 2580.13,671.835Z" clip-rule="nonzero"/>
        </clipPath>
        <g clip-path="url(#_clip2)">
            <rect x="2507.36" y="671.823" width="82.092" height="32.168" style="fill:url(#_Linear3);"/>
        </g>
    </g>
    <g transform="matrix(-0.592632,0.0372703,0.0372703,0.592632,338.421,366.396)">
        <path d="M-62.814,-17.372L-0.423,-17.372L-12.054,-1.181L-61.266,-1.326C-61.791,-6.386 -62.346,-12.136 -62.814,-17.372" style="fill:rgb(35,31,32);"/>
    </g>
    <g transform="matrix(-0.592558,0.0384269,0.0384269,0.592558,339.007,367.842)">
        <path d="M-61.782,-17.397L-0.435,-17.397L-11.657,-1.209L-60.033,-1.354C-60.628,-6.584 -61.168,-10.863 -61.782,-17.397" style="fill:rgb(88,89,91);"/>
    </g>
    <g transform="matrix(-0.592604,0.0377065,0.0377065,0.592604,332,353.2)">
        <path d="M-73.229,-7.422L-0.079,-7.422L-3.749,-2.074L-72.853,-2.075C-73.016,-4.162 -73.147,-5.987 -73.229,-7.422" style="fill:rgb(65,64,66);"/>
    </g>
    <g transform="matrix(-0.592729,-0.0356923,-0.0356923,0.592729,350.679,365.273)">
        <path d="M-0.302,-10.056C1.914,-9.923 3.71,-7.561 3.71,-4.782C3.71,-2.002 1.914,0.143 -0.302,0.009C-2.516,-0.124 -4.313,-2.485 -4.313,-5.266C-4.314,-8.045 -2.517,-10.19 -0.302,-10.056" style="fill:rgb(65,64,66);"/>
    </g>
    <g transform="matrix(-0.592729,-0.0356923,-0.0356923,0.592729,350.679,365.273)">
        <path d="M-0.302,-10.056C1.914,-9.923 3.71,-7.561 3.71,-4.782C3.71,-2.002 1.914,0.143 -0.302,0.009C-2.516,-0.124 -4.313,-2.485 -4.313,-5.266C-4.314,-8.045 -2.517,-10.19 -0.302,-10.056Z" style="fill:none;fill-rule:nonzero;stroke:rgb(35,31,32);stroke-width:0.95px;stroke-linejoin:miter;"/>
    </g>
    <g transform="matrix(-0.592731,-0.0356548,-0.0356548,0.592731,350.772,364.501)">
        <path d="M-0.224,-7.438C1.416,-7.339 2.743,-5.593 2.744,-3.538C2.743,-1.482 1.416,0.105 -0.224,0.007C-1.862,-0.092 -3.19,-1.839 -3.191,-3.894C-3.19,-5.95 -1.863,-7.536 -0.224,-7.438" style="fill:rgb(35,31,32);"/>
    </g>
    <g transform="matrix(-0.592731,-0.0356548,-0.0356548,0.592731,350.772,364.501)">
        <path d="M-0.224,-7.438C1.416,-7.339 2.743,-5.593 2.744,-3.538C2.743,-1.482 1.416,0.105 -0.224,0.007C-1.862,-0.092 -3.19,-1.839 -3.191,-3.894C-3.19,-5.95 -1.863,-7.536 -0.224,-7.438Z" style="fill:none;fill-rule:nonzero;stroke:rgb(35,31,32);stroke-width:0.95px;stroke-linejoin:miter;"/>
    </g>
    <g transform="matrix(0.593803,0,0,0.593803,325.275,376.328)">
        <path d="M0,-58.189L41.023,-6.091C44.347,-1.871 46.316,1.621 53.17,1.089L80.655,-1.042C83.247,-1.243 86.358,-2.061 86.846,-7.836C86.88,-8.243 86.915,-8.712 86.951,-9.234C86.315,-3.965 82.6,-3.37 80.095,-3.161L54.618,-1.029C47.77,-0.457 44.985,-4.708 42.232,-8.291L4.229,-57.747C1.997,-59.81 0.647,-59.13 0,-58.189" style="fill:rgb(128,130,133);"/>
    </g>
    <g transform="matrix(0.593803,0,0,0.593803,349.989,340.071)">
        <path d="M0,54.498L-40.668,2.852C-39.379,1.211 -37.531,0.032 -35.461,-0.82C-33.153,-1.771 -30.568,-2.319 -28.161,-2.655C-25.792,-2.986 -12.792,-3.98 1.046,-4.958C16.124,-6.023 32.164,-7.072 36.545,-7.231C40.745,-7.384 43.03,-6.139 44.277,-3.98C45.583,-1.719 45.857,1.599 45.979,5.392C46.1,9.124 45.912,18.438 45.61,28.004C45.285,38.328 44.823,48.957 44.469,53.159C44.246,55.807 43.455,57.29 42.439,58.122C41.434,58.944 40.15,59.169 38.979,59.261L11.493,61.392C5.664,61.843 3.58,59.139 0.875,55.627L0,54.498ZM-42.216,3.338L-1.192,55.435C-0.817,55.912 -0.566,56.238 -0.324,56.553C2.664,60.431 4.967,63.419 11.606,62.904L39.092,60.773C40.511,60.663 42.081,60.377 43.4,59.298C44.709,58.227 45.719,56.411 45.981,53.284C46.333,49.111 46.796,38.443 47.123,28.051C47.426,18.459 47.613,9.108 47.492,5.344C47.363,1.336 47.062,-2.19 45.589,-4.739C44.058,-7.389 41.358,-8.921 36.491,-8.744C32.041,-8.582 15.988,-7.534 0.939,-6.471C-12.919,-5.49 -25.956,-4.494 -28.369,-4.157C-30.88,-3.807 -33.589,-3.23 -36.036,-2.221C-38.539,-1.19 -40.767,0.291 -42.243,2.439L-42.561,2.901L-42.216,3.338Z" style="fill:rgb(35,31,32);"/>
    </g>
    <g transform="matrix(0.593803,0,0,0.593803,76.4717,184.742)">
        <path d="M0,-138.055C1.607,-149.657 8.331,-150.973 13.078,-151.584C54.519,-156.909 111.7,-157.334 153.878,-157.334L312.39,-157.334C354.568,-157.334 411.749,-156.909 453.19,-151.584C457.937,-150.973 464.661,-149.657 466.269,-138.055C473.994,-82.299 478.631,-36.442 482.157,19.279L-15.89,19.279C-12.362,-36.443 -7.727,-82.299 0,-138.055" style="fill:rgb(35,31,32);"/>
    </g>
    <g transform="matrix(0.593803,0,0,0.593803,76.4717,184.742)">
        <path d="M0,-138.055C1.607,-149.657 8.331,-150.973 13.078,-151.584C54.519,-156.909 111.7,-157.334 153.878,-157.334L312.39,-157.334C354.568,-157.334 411.749,-156.909 453.19,-151.584C457.937,-150.973 464.661,-149.657 466.269,-138.055C473.994,-82.299 478.631,-36.442 482.157,19.279L-15.89,19.279C-12.362,-36.443 -7.727,-82.299 0,-138.055Z" style="fill:none;fill-rule:nonzero;stroke:rgb(35,31,32);stroke-width:2.39px;stroke-linejoin:miter;"/>
    </g>
    <g transform="matrix(0.593803,0,0,0.593803,144.442,94.3282)">
        <path d="M0,154.033C-32,154.033 -64.056,153.517 -96.069,153.254C-99.993,153.221 -120.354,154.687 -120.198,135.23C-120.12,125.478 -117.663,99.756 -115.105,74.99C-112.498,49.735 -109.541,25.509 -108.629,20.98C-107.891,17.315 -107.15,5.654 -86.405,4.172C-39.676,0.832 4.301,0.256 49.238,0.308C57.092,0.317 70.959,-0.654 73.95,6.679C76.963,14.066 81.816,24.444 92.313,24.454C97.989,24.459 103.716,24.454 109.492,24.454L145.707,24.454C156.205,24.454 161.135,14.083 164.2,6.695C167.249,-0.654 181.108,0.342 188.961,0.308C211.695,0.21 238.164,0.373 262.643,1.059C287.06,1.743 308.627,3.249 324.574,4.202C345.329,5.444 345.961,17.377 346.675,21.042C347.553,25.555 350.241,49.786 352.721,74.99C355.155,99.73 357.466,125.416 357.535,135.168C357.674,154.687 337.1,153.206 333.176,153.239C301.111,153.502 269.008,154.033 237.005,154.033L0,154.033Z" style="fill:rgb(109,110,113);"/>
    </g>
    <g transform="matrix(-0.591771,-0.049078,-0.049078,0.591771,54.7948,213.75)">
        <path d="M-7.7,-208.443C-15.77,-203.011 -12.46,-185.611 -11.777,-176.476C-8.735,-135.814 -8.202,-21.512 -7.7,-9C-7.629,-2.56 -5.361,0.225 -1.062,0.946C0.837,-68.572 -1.768,-139.228 -7.7,-208.443Z" style="fill:rgb(35,31,32);stroke:rgb(35,31,32);stroke-width:0.95px;stroke-linejoin:miter;"/>
    </g>
    <g transform="matrix(-0.523731,0.279835,0.279835,0.523731,71.3596,112.346)">
        <path d="M-13.977,-3.5C-8.176,-4.323 -3.181,-4.364 0.876,-3.5" style="fill:none;fill-rule:nonzero;stroke:rgb(35,31,32);stroke-width:2.39px;stroke-linejoin:miter;"/>
    </g>
    <g transform="matrix(-0.591931,0.0471115,0.0471115,0.591931,376.548,213.905)">
        <path d="M10.713,-208.55C15.933,-205.011 15.291,-183.831 14.703,-176.321C11.526,-135.668 10.504,-19.603 10.713,-8.66C10.621,-2.22 7.679,0.109 3.379,0.816C1.711,-68.708 4.549,-139.355 10.713,-208.55Z" style="fill:rgb(35,31,32);stroke:rgb(35,31,32);stroke-width:0.95px;stroke-linejoin:miter;"/>
    </g>
    <g transform="matrix(0.523722,0.279851,0.279851,-0.523722,353.33,105.014)">
        <path d="M-0.876,-3.5C4.925,-2.677 9.919,-2.637 13.976,-3.5" style="fill:none;fill-rule:nonzero;stroke:rgb(35,31,32);stroke-width:2.39px;stroke-linejoin:miter;"/>
    </g>
    <g transform="matrix(0.593803,0,0,0.593803,47.3546,213.779)">
        <path d="M0,-91.632L-18.344,-89.824C-32.72,-88.407 -44.609,-77.401 -44.609,-62.955L-44.609,-16.679C-44.609,-7.246 -36.892,0.473 -27.457,0.473L3.038,0.473C5.787,0.473 8.038,-1.778 8.038,-4.528L8.038,-82.991C8.038,-87.412 4.797,-92.105 0,-91.632Z" style="fill:rgb(65,64,66);stroke:rgb(35,31,32);stroke-width:0.95px;stroke-linejoin:miter;"/>
    </g>
    <g transform="matrix(0.593803,0,0,0.593803,23.2163,213.814)">
        <path d="M0,-76.834C-2.507,-72.813 -3.959,-68.074 -3.959,-63.013L-3.959,-16.737C-3.959,-8.588 1.801,-1.72 9.45,0L30.225,0C35.016,0 38.936,-3.92 38.936,-8.711L38.936,-68.123C38.936,-72.914 35.016,-76.834 30.225,-76.834L0,-76.834Z" style="fill:rgb(88,89,91);stroke:rgb(35,31,32);stroke-width:0.95px;stroke-linejoin:miter;"/>
    </g>
    <g transform="matrix(0.593803,0,0,0.593803,21.0226,202.606)">
        <path d="M0,-24.475L65.51,-24.475C65.979,-24.475 66.414,-24.319 66.766,-24.058C66.199,-16.031 65.661,-8.016 65.139,0L0,0C-1.16,0 -2.109,-0.949 -2.109,-2.109L-2.109,-22.366C-2.109,-23.526 -1.16,-24.475 0,-24.475Z" style="fill:rgb(88,89,91);stroke:rgb(35,31,32);stroke-width:0.95px;stroke-linejoin:miter;"/>
    </g>
    <g transform="matrix(-0.593803,0,0,0.593803,20.3509,191.044)">
        <path d="M-66.598,14.468L0.978,14.468L0.978,0L-67.576,0C-67.242,4.825 -66.916,9.647 -66.598,14.468Z" style="fill:rgb(65,64,66);stroke:rgb(35,31,32);stroke-width:0.95px;stroke-linejoin:miter;"/>
    </g>
    <g transform="matrix(0.593803,0,0,0.593803,44.9469,198.681)">
        <path d="M0,-11.253L-40.391,-11.253C-41.606,-11.253 -42.601,-10.259 -42.601,-9.043L-42.601,-2.211C-42.601,-0.995 -41.606,0 -40.391,0L0,0C1.216,0 2.21,-0.995 2.21,-2.211L2.21,-9.043C2.21,-10.259 1.216,-11.253 0,-11.253Z" style="fill:rgb(35,31,32);stroke:rgb(35,31,32);stroke-width:0.95px;stroke-linejoin:miter;"/>
    </g>
    <g transform="matrix(0.593803,0,0,0.593803,36.8928,198.681)">
        <path d="M0,-11.253L-26.826,-11.253C-28.042,-11.253 -29.037,-10.259 -29.037,-9.043L-29.037,-2.211C-29.037,-0.995 -28.042,0 -26.826,0L0,0L0,-11.253Z" style="fill:rgb(230,231,232);stroke:rgb(35,31,32);stroke-width:0.95px;stroke-linejoin:miter;"/>
    </g>
    <g transform="matrix(0.593803,0,0,0.593803,382.645,213.779)">
        <path d="M0,-91.632L18.345,-89.824C32.721,-88.407 44.61,-77.401 44.61,-62.955L44.61,-16.679C44.61,-7.246 36.892,0.473 27.458,0.473L-3.037,0.473C-5.787,0.473 -8.037,-1.778 -8.037,-4.528L-8.037,-82.991C-8.037,-87.412 -4.797,-92.105 0,-91.632Z" style="fill:rgb(65,64,66);stroke:rgb(35,31,32);stroke-width:0.95px;stroke-linejoin:miter;"/>
    </g>
    <g transform="matrix(0.593803,0,0,0.593803,406.784,213.814)">
        <path d="M0,-76.834C2.507,-72.813 3.959,-68.074 3.959,-63.013L3.959,-16.737C3.959,-8.588 -1.801,-1.72 -9.451,0L-30.225,0C-35.017,0 -38.936,-3.92 -38.936,-8.711L-38.936,-68.123C-38.936,-72.914 -35.016,-76.834 -30.225,-76.834L0,-76.834Z" style="fill:rgb(88,89,91);stroke:rgb(35,31,32);stroke-width:0.95px;stroke-linejoin:miter;"/>
    </g>
    <g transform="matrix(0.593803,0,0,0.593803,408.978,202.606)">
        <path d="M0,-24.475L-65.511,-24.475C-65.979,-24.475 -66.415,-24.319 -66.766,-24.058C-66.2,-16.031 -65.661,-8.016 -65.14,0L0,0C1.159,0 2.109,-0.949 2.109,-2.109L2.109,-22.366C2.109,-23.526 1.16,-24.475 0,-24.475Z" style="fill:rgb(88,89,91);stroke:rgb(35,31,32);stroke-width:0.95px;stroke-linejoin:miter;"/>
    </g>
    <g transform="matrix(0.593803,0,0,0.593803,370.103,191.044)">
        <path d="M0,14.468L67.577,14.468L67.577,0L-0.978,0C-0.643,4.825 -0.317,9.647 0,14.468Z" style="fill:rgb(65,64,66);stroke:rgb(35,31,32);stroke-width:0.95px;stroke-linejoin:miter;"/>
    </g>
    <g transform="matrix(0.593803,0,0,0.593803,385.053,198.681)">
        <path d="M0,-11.253L40.391,-11.253C41.606,-11.253 42.601,-10.259 42.601,-9.043L42.601,-2.211C42.601,-0.995 41.606,0 40.391,0L0,0C-1.216,0 -2.21,-0.995 -2.21,-2.211L-2.21,-9.043C-2.21,-10.259 -1.216,-11.253 0,-11.253Z" style="fill:rgb(35,31,32);stroke:rgb(35,31,32);stroke-width:0.95px;stroke-linejoin:miter;"/>
    </g>
    <g transform="matrix(0.593803,0,0,0.593803,393.108,198.681)">
        <path d="M0,-11.253L26.826,-11.253C28.042,-11.253 29.036,-10.259 29.036,-9.043L29.036,-2.211C29.036,-0.995 28.042,0 26.826,0L0,0L0,-11.253Z" style="fill:rgb(230,231,232);stroke:rgb(35,31,32);stroke-width:0.95px;stroke-linejoin:miter;"/>
    </g>
    <g transform="matrix(-0.0947685,0.586191,0.586191,0.0947685,122.119,77.451)">
        <path d="M-27.123,-23.091C-12.556,-23.661 5.026,-23.501 19.657,-23.091" style="fill:none;fill-rule:nonzero;stroke:rgb(35,31,32);stroke-width:0.95px;stroke-linejoin:miter;"/>
    </g>
    <g transform="matrix(-0.102834,0.584831,0.584831,0.102834,106.737,83.1386)">
        <path d="M-33.682,-28.276C-13.531,-30.162 6.355,-30.325 23.738,-28.276" style="fill:none;fill-rule:nonzero;stroke:rgb(35,31,32);stroke-width:2.39px;stroke-linejoin:miter;"/>
    </g>
    <g transform="matrix(-0.0971991,0.585793,0.585793,0.0971991,113.432,82.2747)">
        <path d="M-32.706,-27.726C-14.137,-28.857 6.315,-28.551 23.505,-27.726" style="fill:none;fill-rule:nonzero;stroke:rgb(35,31,32);stroke-width:0.95px;stroke-linejoin:miter;"/>
    </g>
    <g transform="matrix(-0.0916427,0.586688,0.586688,0.0916427,110.202,82.6817)">
        <path d="M-30.539,-26.139C-11.171,-27.243 4.355,-26.482 22.373,-26.139" style="fill:none;fill-rule:nonzero;stroke:rgb(35,31,32);stroke-width:0.95px;stroke-linejoin:miter;"/>
    </g>
    <g transform="matrix(0.593803,0,0,0.593803,60.6548,302.832)">
        <path d="M0,-17.922C-4.373,-18.825 -10.763,-19.994 -11.606,-30.506C-10.763,-19.994 -4.373,-18.825 0,-17.922L77.289,-1.969C82.111,-0.974 85.352,0.26 87.394,2.33L93.135,8.147C95.893,10.941 98.831,12.584 103.723,12.584L416.063,12.584C420.954,12.584 423.894,10.941 426.651,8.147L432.392,2.33C434.435,0.26 437.675,-0.974 442.496,-1.969L519.786,-17.922C524.159,-18.825 530.549,-19.994 531.393,-30.506" style="fill:none;fill-rule:nonzero;stroke:rgb(35,31,32);stroke-width:0.95px;stroke-linejoin:miter;"/>
    </g>
    <g transform="matrix(0.0947562,0.586193,0.586193,-0.0947562,334.072,68.6986)">
        <path d="M-19.658,-23.091C-5.09,-22.521 12.492,-22.68 27.123,-23.091" style="fill:none;fill-rule:nonzero;stroke:rgb(35,31,32);stroke-width:0.95px;stroke-linejoin:miter;"/>
    </g>
    <g transform="matrix(0.102834,0.584831,0.584831,-0.102834,355.141,71.5075)">
        <path d="M-23.738,-28.276C-3.587,-26.391 16.3,-26.227 33.682,-28.276" style="fill:none;fill-rule:nonzero;stroke:rgb(35,31,32);stroke-width:2.39px;stroke-linejoin:miter;"/>
    </g>
    <g transform="matrix(0.0971991,0.585793,0.585793,-0.0971991,347.984,71.4949)">
        <path d="M-23.505,-27.726C-4.936,-26.595 15.516,-26.901 32.706,-27.726" style="fill:none;fill-rule:nonzero;stroke:rgb(35,31,32);stroke-width:0.95px;stroke-linejoin:miter;"/>
    </g>
    <g transform="matrix(0.0916536,0.586687,0.586687,-0.0916536,349.548,73.0994)">
        <path d="M-22.373,-26.139C-3.004,-25.035 12.521,-25.797 30.54,-26.139" style="fill:none;fill-rule:nonzero;stroke:rgb(35,31,32);stroke-width:0.95px;stroke-linejoin:miter;"/>
    </g>
    <g transform="matrix(0.593803,0,0,0.593803,362.84,260.916)">
        <path d="M0,-109.356C1.788,-83.295 4.76,-47.234 5.48,-14.87L-76.63,0L-419.571,0L-503.736,-15.239C-503.014,-47.448 -500.046,-83.395 -498.265,-109.356L0,-109.356Z" style="fill:rgb(239,235,235);stroke:rgb(35,31,32);stroke-width:3.58px;stroke-linejoin:miter;"/>
    </g>
    <g transform="matrix(0.593803,0,0,0.593803,112.643,201.925)">
        <path d="M0,99.039C-1.501,91.852 -16.445,42.458 -21.84,22.393C-25.669,8.153 -51.075,5.248 -74.061,0M344.439,99.039C345.94,91.852 360.885,42.458 366.28,22.393C370.108,8.153 395.515,5.248 418.5,0" style="fill:none;fill-rule:nonzero;stroke:rgb(35,31,32);stroke-width:1.19px;stroke-linejoin:miter;"/>
    </g>
    <g transform="matrix(0.593803,0,0,0.593803,139.559,203.828)">
        <path d="M0,85.458C-3.021,61.747 -10.37,24.158 -18.789,0M254.094,85.458C257.114,61.747 264.464,24.158 272.883,0" style="fill:none;fill-rule:nonzero;stroke:rgb(35,31,32);stroke-width:0.95px;stroke-linejoin:miter;"/>
    </g>
    <g transform="matrix(0.593803,0,0,0.593803,50.3097,323.578)">
        <path d="M0,-65.495C-1.231,-40.433 -0.864,-15.749 0.326,11.938C1.443,7.063 4.248,2.188 6.679,-2.312C3.086,-17.799 3.982,-49.055 6.432,-77.37L5.716,-77.433L0,-65.495Z" style="fill:rgb(65,64,66);stroke:rgb(35,31,32);stroke-width:2.39px;"/>
    </g>
    <g transform="matrix(0.593803,0,0,0.593803,51.0902,316.868)">
        <path d="M0,-74.256C2.269,-71.008 2.641,-44.813 4.31,-38.345C9.374,-18.716 24.964,-15.998 42.808,-12.281C64.123,-7.841 99.715,-3.765 125.728,-2.996C225.943,-0.038 326.159,0 426.376,-2.996C452.388,-3.774 487.98,-7.841 509.296,-12.281C527.14,-15.998 542.729,-18.716 547.794,-38.345C549.463,-44.813 549.835,-71.008 552.104,-74.256" style="fill:none;fill-rule:nonzero;stroke:rgb(35,31,32);stroke-width:0.95px;stroke-linejoin:miter;"/>
    </g>
    <defs>
        <linearGradient id="_Linear1" x1="0" y1="0" x2="1" y2="0" gradientUnits="userSpaceOnUse" gradientTransform="matrix(82.092,0,0,32.455,2050.14,671.536)"><stop offset="0" style="stop-color:rgb(35,31,32);stop-opacity:1"/><stop offset="0.3" style="stop-color:rgb(38,35,36);stop-opacity:1"/><stop offset="0.32" style="stop-color:rgb(38,35,36);stop-opacity:1"/><stop offset="0.32" style="stop-color:rgb(41,39,40);stop-opacity:1"/><stop offset="0.35" style="stop-color:rgb(41,39,40);stop-opacity:1"/><stop offset="0.36" style="stop-color:rgb(45,42,43);stop-opacity:1"/><stop offset="0.42" style="stop-color:rgb(51,49,50);stop-opacity:1"/><stop offset="0.42" style="stop-color:rgb(54,52,54);stop-opacity:1"/><stop offset="0.44" style="stop-color:rgb(54,52,54);stop-opacity:1"/><stop offset="0.44" style="stop-color:rgb(57,56,57);stop-opacity:1"/><stop offset="0.46" style="stop-color:rgb(57,56,57);stop-opacity:1"/><stop offset="0.48" style="stop-color:rgb(59,59,60);stop-opacity:1"/><stop offset="0.51" style="stop-color:rgb(62,62,63);stop-opacity:1"/><stop offset="0.53" style="stop-color:rgb(65,64,66);stop-opacity:1"/><stop offset="0.56" style="stop-color:rgb(67,67,69);stop-opacity:1"/><stop offset="0.57" style="stop-color:rgb(70,69,71);stop-opacity:1"/><stop offset="0.6" style="stop-color:rgb(72,72,74);stop-opacity:1"/><stop offset="0.62" style="stop-color:rgb(74,75,76);stop-opacity:1"/><stop offset="0.68" style="stop-color:rgb(79,79,81);stop-opacity:1"/><stop offset="0.73" style="stop-color:rgb(84,84,86);stop-opacity:1"/><stop offset="0.79" style="stop-color:rgb(90,91,93);stop-opacity:1"/><stop offset="0.82" style="stop-color:rgb(92,93,96);stop-opacity:1"/><stop offset="0.91" style="stop-color:rgb(101,102,104);stop-opacity:1"/><stop offset="1" style="stop-color:rgb(109,110,113);stop-opacity:1"/></linearGradient>
        <linearGradient id="_Linear3" x1="0" y1="0" x2="1" y2="0" gradientUnits="userSpaceOnUse" gradientTransform="matrix(-82.092,0,-0,32.455,2589.45,671.536)"><stop offset="0" style="stop-color:rgb(35,31,32);stop-opacity:1"/><stop offset="0.3" style="stop-color:rgb(38,35,36);stop-opacity:1"/><stop offset="0.32" style="stop-color:rgb(38,35,36);stop-opacity:1"/><stop offset="0.32" style="stop-color:rgb(41,39,40);stop-opacity:1"/><stop offset="0.35" style="stop-color:rgb(41,39,40);stop-opacity:1"/><stop offset="0.36" style="stop-color:rgb(45,42,43);stop-opacity:1"/><stop offset="0.42" style="stop-color:rgb(51,49,50);stop-opacity:1"/><stop offset="0.42" style="stop-color:rgb(54,52,54);stop-opacity:1"/><stop offset="0.44" style="stop-color:rgb(54,52,54);stop-opacity:1"/><stop offset="0.44" style="stop-color:rgb(57,56,57);stop-opacity:1"/><stop offset="0.46" style="stop-color:rgb(57,56,57);stop-opacity:1"/><stop offset="0.48" style="stop-color:rgb(59,59,60);stop-opacity:1"/><stop offset="0.51" style="stop-color:rgb(62,62,63);stop-opacity:1"/><stop offset="0.53" style="stop-color:rgb(65,64,66);stop-opacity:1"/><stop offset="0.56" style="stop-color:rgb(67,67,69);stop-opacity:1"/><stop offset="0.57" style="stop-color:rgb(70,69,71);stop-opacity:1"/><stop offset="0.6" style="stop-color:rgb(72,72,74);stop-opacity:1"/><stop offset="0.62" style="stop-color:rgb(74,75,76);stop-opacity:1"/><stop offset="0.68" style="stop-color:rgb(79,79,81);stop-opacity:1"/><stop offset="0.73" style="stop-color:rgb(84,84,86);stop-opacity:1"/><stop offset="0.79" style="stop-color:rgb(90,91,93);stop-opacity:1"/><stop offset="0.82" style="stop-color:rgb(92,93,96);stop-opacity:1"/><stop offset="0.91" style="stop-color:rgb(101,102,104);stop-opacity:1"/><stop offset="1" style="stop-color:rgb(109,110,113);stop-opacity:1"/></linearGradient>
    </defs>
</svg>
