<?xml version="1.0" encoding="UTF-8" standalone="no"?>
<!DOCTYPE svg PUBLIC "-//W3C//DTD SVG 1.1//EN" "http://www.w3.org/Graphics/SVG/1.1/DTD/svg11.dtd">
<svg width="100%" height="100%" viewBox="0 0 430 450" version="1.1" xmlns="http://www.w3.org/2000/svg" xmlns:xlink="http://www.w3.org/1999/xlink" xml:space="preserve" xmlns:serif="http://www.serif.com/" style="fill-rule:evenodd;clip-rule:evenodd;stroke-miterlimit:22.926;">
    <g transform="matrix(0.636883,0,0,0.636883,58.8764,308.908)">
        <path d="M0,190.35L44.074,190.35C50.563,190.35 55.871,184.465 55.871,177.274L55.871,13.077C55.871,5.884 50.563,0 44.074,0L0,0C-6.489,0 -11.798,5.884 -11.798,13.077L-11.798,177.274C-11.798,184.465 -6.489,190.35 0,190.35Z" style="fill:rgb(35,31,32);stroke:rgb(35,31,32);stroke-width:0.89px;"/>
    </g>
    <g transform="matrix(0.636883,0,0,0.636883,343.053,308.908)">
        <path d="M0,190.35L44.075,190.35C50.563,190.35 55.872,184.465 55.872,177.274L55.872,13.077C55.872,5.884 50.563,0 44.075,0L0,0C-6.487,0 -11.796,5.884 -11.796,13.077L-11.796,177.274C-11.796,184.465 -6.487,190.35 0,190.35Z" style="fill:rgb(35,31,32);stroke:rgb(35,31,32);stroke-width:0.89px;"/>
    </g>
    <g transform="matrix(0.636883,0,0,0.636883,229.535,378.11)">
        <path d="M0,20.291C3.464,17.728 5.004,15.164 5.004,15.164C7.186,15.408 9.791,17.15 11.548,15.896C13.319,14.632 10.85,10.825 12.702,9.671C15.501,7.926 19.587,10.081 22.71,8.938C33.123,5.129 52.42,4.356 68.129,5.275C70.129,5.393 70.782,8.564 72.747,8.938C76.279,9.61 80.157,9.421 83.525,8.205C96.047,3.687 90.407,10.133 98.151,12.966C102.464,14.544 107.388,13.276 112.008,13.333C117.396,13.398 124.425,9.761 128.174,13.333C133.081,18.007 134.996,15.641 137.026,14.432C139.21,13.132 172.437,16.995 172.437,16.995L177.057,-12.303C43.733,-12.535 -89.377,-12.535 -222.7,-12.303L-218.082,16.995C-218.082,16.995 -188.263,14.059 -185.722,14.559C-179.074,15.867 -179.53,17.311 -173.817,13.333C-169.515,10.336 -163.04,13.398 -157.651,13.333C-144.631,13.175 -149.25,11.578 -142.641,7.84C-138.789,5.661 -135.975,4.788 -131.495,4.909C-129.148,4.973 -126.3,10.443 -118.391,8.938C-116.427,8.564 -115.772,5.393 -113.772,5.275C-97.034,4.296 -81.831,4.007 -68.354,8.938C-65.231,10.08 -61.145,7.926 -58.346,9.671C-56.494,10.825 -58.963,14.632 -57.191,15.896C-55.435,17.15 -52.829,15.408 -50.647,15.164C-50.647,15.164 -49.108,17.728 -45.645,20.291C-28.705,32.826 -16.938,32.826 0,20.291" style="fill:rgb(35,31,32);"/>
    </g>
    <g transform="matrix(0.636883,0,0,0.636883,229.535,378.11)">
        <path d="M0,20.291C3.464,17.728 5.004,15.164 5.004,15.164C7.186,15.408 9.791,17.15 11.548,15.896C13.319,14.632 10.85,10.825 12.702,9.671C15.501,7.926 19.587,10.081 22.71,8.938C33.123,5.129 52.42,4.356 68.129,5.275C70.129,5.393 70.782,8.564 72.747,8.938C76.279,9.61 80.157,9.421 83.525,8.205C96.047,3.687 90.407,10.133 98.151,12.966C102.464,14.544 107.388,13.276 112.008,13.333C117.396,13.398 124.425,9.761 128.174,13.333C133.081,18.007 134.996,15.641 137.026,14.432C139.21,13.132 172.437,16.995 172.437,16.995L177.057,-12.303C43.733,-12.535 -89.377,-12.535 -222.7,-12.303L-218.082,16.995C-218.082,16.995 -188.263,14.059 -185.722,14.559C-179.074,15.867 -179.53,17.311 -173.817,13.333C-169.515,10.336 -163.04,13.398 -157.651,13.333C-144.631,13.175 -149.25,11.578 -142.641,7.84C-138.789,5.661 -135.975,4.788 -131.495,4.909C-129.148,4.973 -126.3,10.443 -118.391,8.938C-116.427,8.564 -115.772,5.393 -113.772,5.275C-97.034,4.296 -81.831,4.007 -68.354,8.938C-65.231,10.08 -61.145,7.926 -58.346,9.671C-56.494,10.825 -58.963,14.632 -57.191,15.896C-55.435,17.15 -52.829,15.408 -50.647,15.164C-50.647,15.164 -49.108,17.728 -45.645,20.291C-28.705,32.826 -16.938,32.826 0,20.291Z" style="fill:none;fill-rule:nonzero;stroke:rgb(35,31,32);stroke-width:0.89px;"/>
    </g>
    <g transform="matrix(0.636883,0,0,0.636883,51.6798,404.202)">
        <path d="M0,-85.217C-1.641,-85.217 -2.982,-83.863 -2.982,-82.208L-2.982,-39.35C-2.982,-33.114 -2.898,-27.881 -0.798,-21.242L4.977,-3.008C5.476,-1.432 6.468,0 12.271,0L61.393,0C67.196,0 67.993,-1.508 68.687,-3.008L76.84,-20.643C79.76,-26.958 79.62,-33.114 79.62,-39.35L79.62,-82.208C79.62,-83.863 78.278,-85.217 76.638,-85.217L0,-85.217Z" style="fill:rgb(65,64,66);stroke:rgb(35,31,32);stroke-width:0.89px;"/>
    </g>
    <g transform="matrix(0.636883,0,0,0.636883,378.17,404.202)">
        <path d="M0,-85.217C1.641,-85.217 2.982,-83.863 2.982,-82.208L2.982,-39.35C2.982,-33.114 2.899,-27.881 0.798,-21.242L-4.977,-3.008C-5.475,-1.432 -6.467,0 -12.271,0L-61.392,0C-67.196,0 -67.993,-1.508 -68.687,-3.008L-76.84,-20.643C-79.76,-26.958 -79.619,-33.114 -79.619,-39.35L-79.619,-82.208C-79.619,-83.863 -78.277,-85.217 -76.637,-85.217L0,-85.217Z" style="fill:rgb(65,64,66);stroke:rgb(35,31,32);stroke-width:0.89px;"/>
    </g>
    <g transform="matrix(0.636883,0,0,0.636883,421.897,179.429)">
        <path d="M0,-24.475L-65.51,-24.475C-65.979,-24.475 -66.414,-24.32 -66.766,-24.058C-66.199,-16.032 -65.661,-8.016 -65.139,0L0,0C1.16,0 2.109,-0.95 2.109,-2.11L2.109,-22.366C2.109,-23.526 1.16,-24.475 0,-24.475Z" style="fill:rgb(35,31,32);stroke:rgb(35,31,32);stroke-width:0.89px;"/>
    </g>
    <g transform="matrix(0.636883,0,0,0.636883,380.202,167.028)">
        <path d="M0,14.468L67.576,14.468L67.576,0L-0.978,0C-0.644,4.825 -0.318,9.647 0,14.468Z" style="fill:rgb(65,64,66);stroke:rgb(35,31,32);stroke-width:0.89px;"/>
    </g>
    <g transform="matrix(0.636883,0,0,0.636883,393.655,191.413)">
        <path d="M0,-91.631L18.344,-89.823C32.72,-88.406 44.609,-77.4 44.609,-62.954L44.609,-16.678C44.609,-7.245 36.892,0.473 27.458,0.473L-3.038,0.473C-5.787,0.473 -8.038,-1.777 -8.038,-4.527L-8.038,-82.991C-8.038,-87.411 -4.797,-92.104 0,-91.631Z" style="fill:rgb(35,31,32);stroke:rgb(35,31,32);stroke-width:0.89px;"/>
    </g>
    <g transform="matrix(0.636883,0,0,0.636883,391.315,146.113)">
        <path d="M0,51.136L0,63.647C0,67.502 2.639,67.235 3.447,67.235L31.131,67.235C38.154,67.235 43.917,61.472 43.917,54.449L43.917,51.136L0,51.136ZM3.244,-16.161C1.16,-16.366 0,-13.583 0,-11.865L0,47.573L43.917,47.573L43.917,8.172C43.917,-4.251 33.44,-13.184 21.589,-14.352L3.244,-16.161Z" style="fill:rgb(147,149,152);"/>
    </g>
    <g transform="matrix(0.636883,0,0,0.636883,420.789,175.219)">
        <path d="M0,-11.253L1.841,-11.253C3.057,-11.253 4.051,-10.259 4.051,-9.044L4.051,-2.211C4.051,-0.995 3.056,0 1.841,0L0,0C-1.216,0 -2.21,-0.995 -2.21,-2.211L-2.21,-9.044C-2.21,-10.26 -1.216,-11.253 0,-11.253Z" style="fill:rgb(35,31,32);stroke:rgb(35,31,32);stroke-width:0.89px;"/>
    </g>
    <g transform="matrix(0.636883,0,0,0.636883,420.662,175.219)">
        <path d="M0,-11.253L2.038,-11.253C3.254,-11.253 4.249,-10.258 4.249,-9.043L4.249,-2.211C4.249,-0.996 3.253,0 2.038,0L0,0L0,-11.253Z" style="fill:rgb(230,231,232);"/>
    </g>
    <g transform="matrix(0.636883,0,0,0.636883,8.10242,179.429)">
        <path d="M0,-24.475L65.51,-24.475C65.979,-24.475 66.415,-24.32 66.766,-24.058C66.2,-16.032 65.661,-8.016 65.14,0L0,0C-1.159,0 -2.109,-0.95 -2.109,-2.11L-2.109,-22.366C-2.109,-23.526 -1.16,-24.475 0,-24.475Z" style="fill:rgb(35,31,32);stroke:rgb(35,31,32);stroke-width:0.89px;"/>
    </g>
    <g transform="matrix(-0.636883,0,0,0.636883,7.38262,167.028)">
        <path d="M-66.597,14.468L0.979,14.468L0.979,0L-67.576,0C-67.241,4.825 -66.915,9.647 -66.597,14.468Z" style="fill:rgb(65,64,66);stroke:rgb(35,31,32);stroke-width:0.89px;"/>
    </g>
    <g transform="matrix(0.636883,0,0,0.636883,36.3448,191.413)">
        <path d="M0,-91.631L-18.344,-89.823C-32.72,-88.406 -44.609,-77.4 -44.609,-62.954L-44.609,-16.678C-44.609,-7.245 -36.891,0.473 -27.457,0.473L3.038,0.473C5.788,0.473 8.038,-1.777 8.038,-4.527L8.038,-82.991C8.038,-87.411 4.797,-92.104 0,-91.631Z" style="fill:rgb(35,31,32);stroke:rgb(35,31,32);stroke-width:0.89px;"/>
    </g>
    <g transform="matrix(0.636883,0,0,0.636883,38.684,146.113)">
        <path d="M0,51.136L0,63.647C0,67.502 -2.639,67.235 -3.447,67.235L-31.13,67.235C-38.154,67.235 -43.917,61.472 -43.917,54.449L-43.917,51.136L0,51.136ZM-3.244,-16.161C-1.16,-16.366 0,-13.583 0,-11.865L0,47.573L-43.917,47.573L-43.917,8.172C-43.917,-4.251 -33.44,-13.184 -21.588,-14.352L-3.244,-16.161Z" style="fill:rgb(147,149,152);"/>
    </g>
    <g transform="matrix(0.636883,0,0,0.636883,9.21073,175.219)">
        <path d="M0,-11.253L-1.84,-11.253C-3.056,-11.253 -4.05,-10.259 -4.05,-9.044L-4.05,-2.211C-4.05,-0.995 -3.056,0 -1.84,0L0,0C1.216,0 2.21,-0.995 2.21,-2.211L2.21,-9.044C2.21,-10.26 1.216,-11.253 0,-11.253Z" style="fill:rgb(35,31,32);stroke:rgb(35,31,32);stroke-width:0.89px;"/>
    </g>
    <g transform="matrix(0.636883,0,0,0.636883,9.33702,175.219)">
        <path d="M0,-11.253L-2.038,-11.253C-3.254,-11.253 -4.248,-10.258 -4.248,-9.043L-4.248,-2.211C-4.248,-0.996 -3.253,0 -2.038,0L0,0L0,-11.253Z" style="fill:rgb(230,231,232);"/>
    </g>
    <g transform="matrix(0.636883,0,0,0.636883,382.079,18.5336)">
        <path d="M0,509.419L0,302.966C0,213.699 -10.184,116.034 -28.818,39.469C-34.688,18.581 -46.212,11.273 -61.095,9.379C-63.353,9.091 -62.628,10.857 -64.105,11.716C-65.493,12.522 -68.485,12.854 -70.289,11.328C-71.322,10.454 -71.212,8.68 -73.091,8.488C-73.797,8.416 -74.51,8.389 -75.219,8.337C-189.258,0 -335.983,0.003 -449.983,8.337C-450.692,8.389 -451.405,8.416 -452.111,8.488C-453.99,8.68 -453.88,10.454 -454.913,11.328C-456.717,12.854 -459.709,12.522 -461.097,11.716C-462.575,10.857 -461.85,9.091 -464.107,9.379C-478.991,11.273 -490.514,18.581 -496.384,39.469C-515.02,116.034 -525.202,213.699 -525.202,302.966L-525.202,509.419L0,509.419Z" style="fill:rgb(239,235,235);stroke:rgb(35,31,32);stroke-width:2.22px;"/>
    </g>
    <g transform="matrix(0.636883,0,0,0.636883,344.241,368.085)">
        <path d="M0,-530.588C14.072,-529.684 21.93,-514.855 25.086,-502.154C41.929,-434.39 52.315,-314.191 52.315,-243.49L52.315,-119.61C56.21,-115.558 59.94,-107.725 59.94,-97.851L59.94,-26.308C59.94,-22.21 58.987,-9.177 53.473,-7.27C51.22,5.062 48.143,5.774 44.186,6.719C36.64,8.521 23.521,8.717 14.042,8.717L-420.422,8.717C-429.9,8.717 -443.02,8.521 -450.565,6.719C-454.522,5.774 -457.6,5.062 -459.853,-7.27C-465.367,-9.177 -466.321,-22.21 -466.321,-26.308L-466.321,-97.851C-466.321,-107.725 -462.59,-115.558 -458.695,-119.61L-458.695,-243.49C-458.695,-314.191 -448.309,-434.39 -431.466,-502.154C-428.31,-514.855 -420.452,-529.684 -406.38,-530.588C-270.651,-539.304 -135.727,-539.305 0,-530.588" style="fill:rgb(239,235,235);"/>
    </g>
    <g transform="matrix(0.636883,0,0,0.636883,344.241,368.085)">
        <path d="M0,-530.588C14.072,-529.684 21.93,-514.855 25.086,-502.154C41.929,-434.39 52.315,-314.191 52.315,-243.49L52.315,-119.61C56.21,-115.558 59.94,-107.725 59.94,-97.851L59.94,-26.308C59.94,-22.21 58.987,-9.177 53.473,-7.27C51.22,5.062 48.143,5.774 44.186,6.719C36.64,8.521 23.521,8.717 14.042,8.717L-420.422,8.717C-429.9,8.717 -443.02,8.521 -450.565,6.719C-454.522,5.774 -457.6,5.062 -459.853,-7.27C-465.367,-9.177 -466.321,-22.21 -466.321,-26.308L-466.321,-97.851C-466.321,-107.725 -462.59,-115.558 -458.695,-119.61L-458.695,-243.49C-458.695,-314.191 -448.309,-434.39 -431.466,-502.154C-428.31,-514.855 -420.452,-529.684 -406.38,-530.588C-270.651,-539.304 -135.727,-539.305 0,-530.588Z" style="fill:none;fill-rule:nonzero;stroke:rgb(35,31,32);stroke-width:2.22px;"/>
    </g>
    <g transform="matrix(0.636883,0,0,0.636883,76.8161,291.999)">
        <path d="M0,128.182C-9.478,128.182 -22.597,127.987 -30.143,126.184C-34.101,125.24 -37.177,124.528 -39.431,112.196C-44.944,110.288 -45.898,97.255 -45.898,93.158L-45.898,21.615C-45.898,11.858 -42.254,4.093 -38.41,0L472.35,0C476.193,4.093 479.837,11.858 479.837,21.615L479.837,93.158C479.837,97.255 478.884,110.288 473.369,112.196C471.116,124.528 468.039,125.24 464.082,126.184C456.536,127.987 443.417,128.182 433.938,128.182L0,128.182Z" style="fill:rgb(65,64,66);stroke:rgb(35,31,32);stroke-width:2.22px;"/>
    </g>
    <g transform="matrix(0.636883,0,0,0.636883,47.8137,344.094)">
        <path d="M0,-63.595C0,-71.798 4.619,-78.841 7.128,-81.512L29.801,-81.512L29.839,-5.452C29.844,4.457 32.162,15.516 41.228,17.917L13.657,17.917C6.647,17.917 0.005,4.457 0,-5.452L0,-63.595Z" style="fill:rgb(88,89,91);stroke:rgb(35,31,32);stroke-width:1.11px;"/>
    </g>
    <g transform="matrix(0.636883,0,0,0.636883,66.6284,309.301)">
        <path d="M0,-25.103L-24.063,-25.103L-22.751,-26.812L0,-26.812L0,-25.103ZM-0.938,1.709L-29.312,1.709L-29.312,0L-0.938,0L-0.938,1.709Z" style="fill:rgb(35,31,32);"/>
    </g>
    <g transform="matrix(0.636883,0,0,0.636883,382.162,344.094)">
        <path d="M0,-63.595C0,-71.798 -4.618,-78.841 -7.127,-81.512L-29.801,-81.512L-29.839,-5.452C-29.843,4.457 -32.161,15.516 -41.227,17.917L-13.657,17.917C-6.647,17.917 -0.005,4.457 0,-5.452L0,-63.595Z" style="fill:rgb(88,89,91);stroke:rgb(35,31,32);stroke-width:1.11px;"/>
    </g>
    <g transform="matrix(0.636883,0,0,0.636883,363.348,309.301)">
        <path d="M0,-25.103L24.062,-25.103L22.75,-26.812L0,-26.812L0,-25.103ZM0.937,1.709L29.312,1.709L29.312,0L0.937,0L0.937,1.709Z" style="fill:rgb(35,31,32);"/>
    </g>
    <g transform="matrix(0.636883,0,0,0.636883,345.761,32.7635)">
        <path d="M0,503.033L15.986,502.985C22.222,502.966 27.371,493.292 27.375,483.383L27.469,293.03C27.47,290.718 28.725,289.085 32.038,288.147C32.249,254.1 29.863,189.955 21.849,117.915C17.841,81.898 12.927,51.982 7.07,19.502C6.043,13.807 0.903,6.844 -7.609,5.518C-43.056,0 -124.37,0.067 -205.582,0.069C-286.963,0.071 -368.243,0.023 -403.544,5.518C-412.056,6.844 -417.197,13.807 -418.224,19.502C-424.08,51.982 -428.994,81.898 -433.002,117.915C-441.018,189.955 -443.402,254.1 -443.192,288.147C-439.878,289.085 -438.624,290.718 -438.623,293.03L-438.529,483.383C-438.524,493.292 -433.375,502.966 -427.141,502.985L-411.154,503.033L0,503.033Z" style="fill:rgb(239,235,235);stroke:rgb(35,31,32);stroke-width:2.22px;"/>
    </g>
    <g transform="matrix(0.636883,0,0,0.636883,65.3877,355.72)">
        <path d="M0,-100.051L2.228,-100.051L2.266,-23.707C2.271,-13.798 7.419,-4.124 13.654,-4.105L29.641,-4.057L440.228,-4.057L456.214,-4.105C462.449,-4.124 467.599,-13.798 467.603,-23.707L467.641,-100.051L469.868,-100.051L469.828,-19.792C469.824,-9.812 464.626,-0.068 458.331,-0.049L442.191,0L27.677,0L11.537,-0.049C5.243,-0.068 0.044,-9.812 0.04,-19.792L0,-100.051Z" style="fill:rgb(35,31,32);"/>
    </g>
    <g transform="matrix(0.636883,0,0,0.636883,214.832,342.916)">
        <path d="M-205.01,16.048L205.577,16.048L221.563,16C227.037,15.984 231.674,8.526 232.728,0L-232.16,0C-231.105,8.526 -226.47,15.984 -220.996,16L-205.01,16.048Z" style="fill:rgb(88,89,91);"/>
    </g>
    <g transform="matrix(0.636883,0,0,0.636883,52.4889,356.834)">
        <path d="M0,10.573C-4.592,10.573 -6.038,3.445 -6.627,0L516.81,0C516.221,3.445 514.775,10.573 510.183,10.573L0,10.573Z" style="fill:rgb(88,89,91);stroke:rgb(35,31,32);stroke-width:0.89px;"/>
    </g>
    <g transform="matrix(0.636883,0,0,0.636883,101.905,329.429)">
        <path d="M0,-38.427L143.095,-38.427C145.456,-38.427 147.388,-36.523 147.388,-34.197L147.388,-4.231C147.388,-1.904 145.456,0 143.095,0L0,0C-2.361,0 -4.292,-1.904 -4.292,-4.231L-4.292,-34.197C-4.292,-36.523 -2.361,-38.427 0,-38.427Z" style="fill:rgb(35,31,32);stroke:rgb(35,31,32);stroke-width:0.89px;"/>
    </g>
    <g transform="matrix(0.636883,0,0,0.636883,102.999,325.279)">
        <path d="M0,-28.389L139.247,-28.389C140.614,-28.389 141.733,-27.27 141.733,-25.902L141.733,-2.487C141.733,-1.119 140.614,0 139.247,0L0,0C-1.368,0 -2.486,-1.119 -2.486,-2.487L-2.486,-25.902C-2.486,-27.27 -1.368,-28.389 0,-28.389Z" style="fill:white;stroke:rgb(35,31,32);stroke-width:0.89px;"/>
    </g>
    <g transform="matrix(0.636883,0,0,0.636883,204.637,297.639)">
        <path d="M0,52.801C0.794,56.073 -1.165,58.751 -4.463,58.751L-177.173,58.751C-180.47,58.751 -182.429,56.073 -181.635,52.801C-177.363,35.2 -173.093,17.601 -168.821,0C-168.027,-3.272 -164.769,-5.95 -161.471,-5.95L-20.164,-5.95C-16.866,-5.95 -13.608,-3.272 -12.813,0C-8.542,17.601 -4.271,35.2 0,52.801Z" style="fill:none;fill-rule:nonzero;stroke:rgb(35,31,32);stroke-width:0.89px;"/>
    </g>
    <g transform="matrix(0.636883,0,0,0.636883,205.451,297.639)">
        <path d="M0,52.801C0,56.073 -2.608,58.751 -5.906,58.751L-178.285,58.751C-181.583,58.751 -184.191,56.073 -184.191,52.801L-184.191,0C-184.191,-3.272 -181.583,-5.95 -178.285,-5.95L-5.906,-5.95C-2.608,-5.95 0,-3.272 0,0L0,52.801Z" style="fill:none;fill-rule:nonzero;stroke:rgb(35,31,32);stroke-width:0.89px;"/>
    </g>
    <g transform="matrix(0.636883,0,0,0.636883,205.451,294.685)">
        <path d="M0,14.376L0,4.638C0,1.365 -2.608,-1.312 -5.906,-1.312L-178.285,-1.312C-181.583,-1.312 -184.191,1.365 -184.191,4.638L-184.191,14.376C-184.191,15.273 -182.877,15.688 -182.101,15.688L-2.091,15.688C-1.314,15.688 0,15.273 0,14.376Z" style="fill:rgb(65,64,66);stroke:rgb(35,31,32);stroke-width:0.89px;"/>
    </g>
    <g transform="matrix(0.636883,0,0,0.636883,90.2391,296.527)">
        <path d="M0,12.797L177.609,12.797L177.609,5.737C177.609,2.582 175.095,0 171.915,0L5.694,0C2.516,0 0,2.582 0,5.737L0,12.797Z" style="fill:rgb(35,31,32);"/>
    </g>
    <g transform="matrix(-0.043964,0.635363,0.635363,0.043964,230.483,126.319)">
        <path d="M240.42,-240.662C248.684,-218.678 250.736,-207.696 250.133,-183.01C248.694,-124.073 244.485,-66.361 240.42,-7.604C236.354,51.153 232.574,108.895 225.882,167.468C223.078,192.002 219.534,202.597 208.32,223.233" style="fill:none;fill-rule:nonzero;stroke:rgb(35,31,32);stroke-width:1.11px;"/>
    </g>
    <g transform="matrix(0.636883,0,0,0.636883,219.722,59.0129)">
        <path d="M194.103,200.8L-208.932,200.8C-229.612,200.8 -232.781,190.855 -232.336,178.488C-231.471,154.48 -229.955,125.104 -227.807,101.178C-225.476,75.216 -222.39,49.321 -218.869,23.493C-218.391,19.986 -217.664,16.51 -216.183,13.277C-212.987,6.303 -207.142,2.533 -199.501,2.263C-135.498,0 -71.447,0.38 -7.415,0.411C56.617,0.38 120.668,0 184.672,2.263C192.312,2.533 198.158,6.303 201.353,13.277C202.834,16.51 203.562,19.986 204.039,23.493C207.561,49.321 210.646,75.216 212.978,101.178C215.125,125.104 216.642,154.48 217.506,178.488C217.951,190.855 214.782,200.8 194.103,200.8Z" style="fill:none;fill-rule:nonzero;stroke:rgb(35,31,32);stroke-width:0.89px;"/>
    </g>
    <g transform="matrix(0.636883,0,0,0.636883,219.722,60.818)">
        <path d="M197.29,189.745L-212.12,189.745C-215.689,189.745 -219.181,188.783 -222.133,186.748C-227.533,183.023 -229.734,176.739 -229.503,170.37C-228.635,146.402 -227.131,122.483 -224.983,98.598C-222.652,72.672 -219.576,46.832 -216.061,21.042C-215.622,17.823 -214.966,14.592 -213.605,11.623C-210.87,5.652 -206,2.495 -199.401,2.262C-135.434,0 -71.413,0.38 -7.415,0.411C56.583,0.38 120.604,0 184.571,2.262C191.171,2.495 196.04,5.652 198.775,11.623C200.136,14.592 200.792,17.823 201.23,21.042C204.746,46.832 207.823,72.672 210.153,98.598C212.302,122.483 213.806,146.402 214.674,170.37C214.904,176.739 212.703,183.023 207.303,186.748C204.352,188.783 200.859,189.745 197.29,189.745Z" style="fill:none;fill-rule:nonzero;stroke:rgb(35,31,32);stroke-width:0.89px;"/>
    </g>
    <g transform="matrix(0.636883,0,0,0.636883,215,179.598)">
        <path d="M0,-183.257C63.907,-183.288 128.063,-183.665 191.887,-181.408C202.806,-181.023 204.946,-171.616 205.837,-165.078C212.863,-113.537 217.389,-67.59 219.256,-16.03C219.631,-5.691 213.055,0.408 204.705,0.408L-204.705,0.408C-213.055,0.408 -219.63,-5.691 -219.256,-16.03C-217.388,-67.59 -212.862,-113.537 -205.837,-165.078C-204.945,-171.616 -202.806,-181.023 -191.886,-181.408C-128.062,-183.665 -63.906,-183.288 0,-183.257Z" style="fill:none;fill-rule:nonzero;stroke:rgb(35,31,32);stroke-width:0.89px;"/>
    </g>
    <g transform="matrix(0.636883,0,0,0.636883,66.6863,220.348)">
        <path d="M0,0L465,0" style="fill:none;fill-rule:nonzero;stroke:rgb(35,31,32);stroke-width:1.11px;"/>
    </g>
    <g transform="matrix(-0.636883,0,0,0.636883,1692.4,-178.953)">
        <rect x="2318.68" y="332.485" width="2.126" height="502.974" style="fill:rgb(35,31,32);"/>
    </g>
    <g transform="matrix(0.636883,0,0,0.636883,306.562,197.51)">
        <path d="M0,20.786C5.725,20.786 10.394,16.117 10.394,10.393C10.394,4.669 5.725,0 0,0C-5.725,0 -10.393,4.669 -10.393,10.393C-10.393,16.117 -5.725,20.786 0,20.786" style="fill:rgb(35,31,32);"/>
    </g>
    <g transform="matrix(0.636883,0,0,0.636883,306.562,197.51)">
        <path d="M0,20.786C5.725,20.786 10.394,16.117 10.394,10.393C10.394,4.669 5.725,0 0,0C-5.725,0 -10.393,4.669 -10.393,10.393C-10.393,16.117 -5.725,20.786 0,20.786Z" style="fill:none;fill-rule:nonzero;stroke:rgb(35,31,32);stroke-width:0.89px;"/>
    </g>
    <g transform="matrix(0.636883,0,0,0.636883,306.562,199.969)">
        <path d="M0,13.063C3.598,13.063 6.531,10.128 6.531,6.532C6.531,2.934 3.598,0 0,0C-3.598,0 -6.531,2.934 -6.531,6.532C-6.531,10.128 -3.598,13.063 0,13.063" style="fill:rgb(65,64,66);"/>
    </g>
    <g transform="matrix(0.636883,0,0,0.636883,306.562,199.969)">
        <path d="M0,13.063C3.598,13.063 6.531,10.128 6.531,6.532C6.531,2.934 3.598,0 0,0C-3.598,0 -6.531,2.934 -6.531,6.532C-6.531,10.128 -3.598,13.063 0,13.063Z" style="fill:none;fill-rule:nonzero;stroke:rgb(35,31,32);stroke-width:0.89px;"/>
    </g>
    <g transform="matrix(0.636883,0,0,0.636883,123.438,197.51)">
        <path d="M0,20.786C5.725,20.786 10.394,16.117 10.394,10.393C10.394,4.669 5.725,0 0,0C-5.725,0 -10.393,4.669 -10.393,10.393C-10.393,16.117 -5.725,20.786 0,20.786" style="fill:rgb(35,31,32);"/>
    </g>
    <g transform="matrix(0.636883,0,0,0.636883,123.438,197.51)">
        <path d="M0,20.786C5.725,20.786 10.394,16.117 10.394,10.393C10.394,4.669 5.725,0 0,0C-5.725,0 -10.393,4.669 -10.393,10.393C-10.393,16.117 -5.725,20.786 0,20.786Z" style="fill:none;fill-rule:nonzero;stroke:rgb(35,31,32);stroke-width:0.89px;"/>
    </g>
    <g transform="matrix(0.636883,0,0,0.636883,123.438,199.969)">
        <path d="M0,13.063C3.598,13.063 6.531,10.128 6.531,6.532C6.531,2.934 3.598,0 0,0C-3.598,0 -6.531,2.934 -6.531,6.532C-6.531,10.128 -3.598,13.063 0,13.063" style="fill:rgb(65,64,66);"/>
    </g>
    <g transform="matrix(0.636883,0,0,0.636883,123.438,199.969)">
        <path d="M0,13.063C3.598,13.063 6.531,10.128 6.531,6.532C6.531,2.934 3.598,0 0,0C-3.598,0 -6.531,2.934 -6.531,6.532C-6.531,10.128 -3.598,13.063 0,13.063Z" style="fill:none;fill-rule:nonzero;stroke:rgb(35,31,32);stroke-width:0.89px;"/>
    </g>
    <g transform="matrix(0.636883,0,0,0.636883,224.057,220.746)">
        <path d="M0,-1.25C0.458,-2.172 0.751,-2.908 1.394,-3.761C2.404,-5.101 3.738,-6.006 5.389,-6.365C7.139,-6.746 9.061,-6.934 10.845,-7.1C13.029,-7.302 15.355,-7.501 17.55,-7.534C18.568,-7.55 20.465,-7.515 20.969,-8.409L23.552,-12.99C25.166,-15.855 28.398,-18.126 31.687,-18.126L47.666,-18.126C50.955,-18.126 55.276,-14.762 56.833,-11.865L58.509,-8.745C59.349,-7.184 59.999,-7.396 61.544,-7.343C62.68,-7.304 63.825,-7.217 64.957,-7.121C66.217,-7.015 67.544,-6.903 68.788,-6.693C70.651,-6.378 72.161,-5.921 73.308,-4.29C73.991,-3.318 74.602,-2.339 75.191,-1.31C75.435,-0.885 75.431,-0.322 75.176,0.096C74.558,1.107 73.995,2.072 73.308,3.05C72.161,4.681 70.663,5.213 68.788,5.452C66.646,5.726 63.199,6.076 61.058,6.104C59.852,6.12 59.254,6.108 58.509,7.495L56.833,10.615C55.082,13.875 51.366,16.876 47.666,16.876L31.687,16.876C28.399,16.876 25.166,14.605 23.552,11.74L20.969,7.158C20.511,6.346 18.905,6.301 17.851,6.288C14.542,6.374 8.615,5.739 5.389,5.125C3.727,4.809 2.403,3.854 1.393,2.511C0.751,1.656 0.466,0.923 0,0.006C-0.189,-0.368 -0.187,-0.875 0,-1.25Z" style="fill:none;fill-rule:nonzero;stroke:rgb(35,31,32);stroke-width:0.89px;"/>
    </g>
    <g transform="matrix(0.636883,0,0,0.636883,224.782,220.599)">
        <path d="M0,-0.777C0.556,-1.836 1.581,-4.392 4.491,-5.026C7.666,-5.717 14.865,-6.145 16.429,-6.169C18.491,-6.201 19.483,-4.263 21.679,-4.263L55.241,-4.263C57.462,-4.256 57.751,-6.068 60.366,-5.978C62.21,-5.915 65.96,-5.597 67.46,-5.343C68.96,-5.089 70.278,-4.776 71.241,-3.407C72,-2.327 72.518,-1.466 72.846,-0.902C72.933,-0.752 72.969,-0.692 73.028,-0.584C73.143,-0.377 73.042,-0.201 73.034,-0.187C72.971,-0.084 72.932,-0.034 72.845,0.114C72.515,0.675 72.004,1.544 71.241,2.629C70.278,3.999 68.96,4.313 67.46,4.567C65.96,4.821 62.21,5.138 60.366,5.201C57.751,5.291 57.462,3.479 55.241,3.487L21.679,3.487C19.483,3.487 18.491,5.424 16.429,5.392C14.865,5.369 7.666,4.941 4.491,4.249C1.548,3.608 0.479,1.034 -0.019,-0.049C-0.131,-0.292 -0.159,-0.474 0,-0.777" style="fill:rgb(35,31,32);"/>
    </g>
    <g transform="matrix(0.636883,0,0,0.636883,229.261,218.584)">
        <path d="M0,5.55C1.528,5.55 2.775,4.304 2.775,2.776C2.775,1.247 1.528,0 0,0C-1.528,0 -2.775,1.247 -2.775,2.776C-2.775,4.304 -1.528,5.55 0,5.55" style="fill:rgb(167,169,172);"/>
    </g>
    <g transform="matrix(0.636883,0,0,0.636883,229.261,218.584)">
        <path d="M0,5.55C1.528,5.55 2.775,4.304 2.775,2.776C2.775,1.247 1.528,0 0,0C-1.528,0 -2.775,1.247 -2.775,2.776C-2.775,4.304 -1.528,5.55 0,5.55Z" style="fill:none;fill-rule:nonzero;stroke:rgb(35,31,32);stroke-width:0.89px;"/>
    </g>
    <g transform="matrix(0.636883,0,0,0.636883,214.905,363.567)">
        <path d="M-216.819,15.81L216.969,15.81C226.447,15.81 239.566,15.615 247.112,13.812C251.051,12.872 254.116,12.169 256.366,0L-256.217,0C-253.967,12.169 -250.9,12.872 -246.962,13.812C-239.416,15.615 -226.297,15.81 -216.819,15.81Z" style="fill:rgb(65,64,66);stroke:rgb(35,31,32);stroke-width:0.89px;"/>
    </g>
    <g transform="matrix(0.636883,0,0,0.636883,66.8492,213.001)">
        <path d="M0,124.104L-21.326,124.104C-21.822,124.104 -22.863,123.853 -24,121.745L-28.882,113.296C-29.168,112.8 -29.28,111.67 -29.28,108.536L-29.28,11.438C-29.278,10.988 -29.443,8.579 -28.137,6.881L-22.84,0L-5.081,4.931C-3.892,5.267 0,6.278 0,10.5L0,124.104Z" style="fill:rgb(141,11,14);"/>
    </g>
    <g transform="matrix(0.636883,0,0,0.636883,53.267,213.389)">
        <path d="M0,122.787L20.617,122.787L20.617,9.891C20.617,6.284 17.257,5.341 16.124,5.022L-1.244,0.199L-6.251,6.704C-7.299,8.065 -7.262,10.037 -7.25,10.669C-6.828,42.974 -7.245,75.587 -7.245,107.927C-7.245,109.474 -7.218,110.522 -7.156,111.235C-7.103,111.859 -7.034,112.177 -6.944,112.334L-2.051,120.801C-1.543,121.742 -1.077,122.255 -0.689,122.527C-0.381,122.744 -0.146,122.787 0,122.787M22.035,124.204L0,124.204C-0.349,124.204 -0.884,124.12 -1.504,123.684C-2.043,123.306 -2.667,122.638 -3.295,121.474L-8.167,113.042C-8.362,112.699 -8.494,112.202 -8.567,111.357C-8.634,110.599 -8.663,109.513 -8.663,107.927L-8.662,10.69C-8.676,9.939 -8.72,7.595 -7.37,5.841L-1.783,-1.417C4.309,0.272 10.403,2.016 16.506,3.661C17.9,4.053 22.035,5.213 22.035,9.891L22.035,124.204Z" style="fill:rgb(35,31,32);"/>
    </g>
    <g transform="matrix(0.636883,0,0,0.636883,52.1325,240.807)">
        <path d="M0,-33.624L18.537,-33.624C19.421,-33.624 20.144,-32.9 20.144,-32.017L20.144,-24.919C20.144,-24.325 19.394,-23.747 18.8,-23.747L9.142,-23.747C8.259,-23.747 7.534,-23.022 7.534,-22.14L7.534,-1.594C7.534,-0.742 6.387,0 5.534,0L0,0C-0.884,0 -1.606,-0.723 -1.606,-1.606L-1.606,-32.017C-1.606,-32.9 -0.884,-33.624 0,-33.624Z" style="fill:rgb(239,62,61);stroke:rgb(237,28,36);stroke-width:0.34px;"/>
    </g>
    <g transform="matrix(0.636883,0,0,0.636883,59.2614,240.807)">
        <path d="M0,-13.458L7.499,-13.458C8.297,-13.458 8.95,-12.804 8.95,-12.006L8.95,-1.451C8.95,-0.654 8.296,0 7.499,0L0,0C-0.798,0 -1.452,-0.653 -1.452,-1.451L-1.452,-12.006C-1.452,-12.805 -0.799,-13.458 0,-13.458Z" style="fill:rgb(239,62,61);stroke:rgb(237,28,36);stroke-width:0.34px;"/>
    </g>
    <g transform="matrix(0.636883,0,0,0.636883,59.2614,251.514)">
        <path d="M0,-13.458L7.499,-13.458C8.297,-13.458 8.95,-12.804 8.95,-12.006L8.95,-1.451C8.95,-0.653 8.296,0 7.499,0L0,0C-0.798,0 -1.452,-0.653 -1.452,-1.451L-1.452,-12.006C-1.452,-12.805 -0.799,-13.458 0,-13.458Z" style="fill:rgb(239,62,61);stroke:rgb(237,28,36);stroke-width:0.34px;"/>
    </g>
    <g transform="matrix(0.636883,0,0,0.636883,52.1325,266.716)">
        <path d="M0,-37.328L6.216,-37.328C6.894,-37.328 7.534,-36.458 7.534,-35.781L7.534,-19.807C7.534,-17.613 8.79,-16.922 9.517,-16.42L18.643,-10.099C19.462,-9.532 20.144,-8.51 20.144,-7.513L20.144,-1.654C20.144,-0.072 18.629,0 17.833,-0.376L0.609,-8.521C-0.393,-8.995 -1.606,-10.182 -1.606,-12.566L-1.606,-35.721C-1.606,-36.604 -0.884,-37.328 0,-37.328Z" style="fill:rgb(239,62,61);stroke:rgb(237,28,36);stroke-width:0.34px;"/>
    </g>
    <g transform="matrix(0.636883,0,0,0.636883,52.1325,261.756)">
        <path d="M0,34.514L18.537,34.514C19.421,34.514 20.144,33.79 20.144,32.907L20.144,10.34C20.144,9.746 19.336,9.419 18.8,9.168L0,0.374C-0.8,0 -1.606,1.098 -1.606,1.981L-1.606,32.907C-1.606,33.79 -0.884,34.514 0,34.514" style="fill:rgb(167,169,172);"/>
    </g>
    <g transform="matrix(-0.636883,0,0,0.636883,1378.47,-16.4819)">
        <rect x="2062.41" y="455.155" width="21.75" height="2.531" style="fill:rgb(128,130,133);"/>
    </g>
    <g transform="matrix(0.579527,0.264136,0.264136,-0.579527,51.0874,256.604)">
        <path d="M-1.437,-6.62L30.484,-6.619" style="fill:none;fill-rule:nonzero;stroke:rgb(35,31,32);stroke-width:1.11px;"/>
    </g>
    <g transform="matrix(0.636883,0,0,0.636883,73.6087,120.98)">
        <path d="M0,-20.489L-27.022,-20.489C-27.642,-20.489 -28.207,-20.252 -28.618,-19.87C-29.036,-19.482 -29.295,-18.944 -29.295,-18.351L-29.295,-11.918L-26.312,-11.918L-26.312,-8.571L-29.295,-8.571L-29.295,-2.137C-29.294,-1.543 -29.035,-1.006 -28.618,-0.619C-28.208,-0.237 -27.643,0 -27.023,0L-0.123,-0.02C0.496,-0.02 1.059,-0.257 1.468,-0.636C1.884,-1.023 2.144,-1.561 2.147,-2.153L2.272,-18.364C2.271,-18.952 2.013,-19.484 1.599,-19.869C1.191,-20.247 0.631,-20.483 0.018,-20.488L0,-20.489Z" style="fill:rgb(35,31,32);stroke:rgb(35,31,32);stroke-width:0.34px;"/>
    </g>
    <g transform="matrix(0.636883,0,0,0.636883,64.0262,119.145)">
        <path d="M0,-14.726C-1.42,-14.726 -2.57,-13.576 -2.57,-12.156C-2.57,-10.736 -1.42,-9.585 0,-9.585C1.42,-9.585 2.57,-10.736 2.57,-12.156C2.57,-13.576 1.42,-14.726 0,-14.726M-0.349,-5.141C-1.768,-5.141 -2.919,-3.991 -2.919,-2.571C-2.919,-1.151 -1.768,0 -0.349,0C1.071,0 2.222,-1.151 2.222,-2.571C2.222,-3.991 1.071,-5.141 -0.349,-5.141M7.202,-5.944L16.264,-5.944L16.264,-8.781L7.202,-8.781L7.202,-5.944ZM7.202,-2.313L16.264,-2.313L16.264,-5.425L7.202,-5.425L7.202,-2.313ZM7.202,-9.299L16.264,-9.299L16.264,-12.412L7.202,-12.412L7.202,-9.299ZM-13.541,-9.213L-11.266,-9.213L-11.266,-12.823L-13.541,-12.823L-13.541,-9.213ZM-13.542,-1.901L-11.266,-1.901L-11.266,-5.511L-13.542,-5.511L-13.542,-1.901ZM-11.977,-16.9L15.062,-16.9C15.774,-16.9 16.488,-16.21 16.488,-15.483L16.488,-13.119L6.346,-13.119L6.346,-1.607L16.488,-1.607L16.488,0.722C16.488,1.557 15.726,2.155 14.923,2.156L-11.977,2.174C-12.413,2.173 -12.807,2.009 -13.091,1.745C-13.369,1.486 -13.542,1.131 -13.542,0.745L-13.542,-1.547L-10.758,-1.547L-10.758,-13.177L-13.541,-13.177L-13.541,-15.47C-13.541,-15.858 -13.368,-16.213 -13.091,-16.471C-12.807,-16.735 -12.412,-16.9 -11.977,-16.9" style="fill:rgb(239,235,235);"/>
    </g>
    <g transform="matrix(0.636883,0,0,0.636883,-1262.4,110.753)">
        <rect x="2057.4" y="349.182" width="27.812" height="14.7" style="fill:rgb(237,28,36);stroke:rgb(35,31,32);stroke-width:0.89px;"/>
    </g>
    <g transform="matrix(0.636883,0,0,0.636883,69.2139,308.438)">
        <path d="M0,-20.49L-27.021,-20.49C-27.642,-20.49 -28.207,-20.253 -28.617,-19.87C-29.035,-19.482 -29.295,-18.944 -29.295,-18.352L-29.295,-11.919L-26.312,-11.919L-26.312,-8.571L-29.295,-8.571L-29.295,-2.137C-29.293,-1.544 -29.034,-1.006 -28.618,-0.619C-28.207,-0.237 -27.643,0 -27.022,0L-0.123,-0.02C0.497,-0.02 1.06,-0.257 1.468,-0.637C1.885,-1.024 2.144,-1.562 2.148,-2.154L2.273,-18.365C2.272,-18.952 2.014,-19.485 1.6,-19.869C1.192,-20.247 0.632,-20.484 0.018,-20.488L0,-20.49Z" style="fill:rgb(35,31,32);stroke:rgb(35,31,32);stroke-width:0.34px;"/>
    </g>
    <g transform="matrix(0.636883,0,0,0.636883,59.6321,306.604)">
        <path d="M0,-14.728C-1.42,-14.728 -2.57,-13.577 -2.57,-12.158C-2.57,-10.738 -1.42,-9.586 0,-9.586C1.419,-9.586 2.57,-10.738 2.57,-12.158C2.57,-13.577 1.419,-14.728 0,-14.728M-0.349,-5.143C-1.769,-5.143 -2.919,-3.992 -2.919,-2.572C-2.919,-1.153 -1.769,-0.001 -0.349,-0.001C1.071,-0.001 2.222,-1.153 2.222,-2.572C2.222,-3.992 1.071,-5.143 -0.349,-5.143M7.201,-5.946L16.263,-5.946L16.263,-8.782L7.201,-8.782L7.201,-5.946ZM7.201,-2.314L16.263,-2.314L16.263,-5.427L7.201,-5.427L7.201,-2.314ZM7.201,-9.3L16.263,-9.3L16.263,-12.413L7.201,-12.413L7.201,-9.3ZM-13.542,-9.215L-11.267,-9.215L-11.267,-12.825L-13.541,-12.825L-13.542,-9.215ZM-13.542,-1.903L-11.267,-1.903L-11.267,-5.512L-13.542,-5.512L-13.542,-1.903ZM-11.977,-16.901L15.062,-16.901C15.773,-16.901 16.487,-16.211 16.487,-15.485L16.487,-13.12L6.345,-13.12L6.345,-1.608L16.487,-1.608L16.487,0.72C16.487,1.555 15.725,2.154 14.922,2.154L-11.977,2.173C-12.413,2.171 -12.807,2.007 -13.091,1.744C-13.369,1.485 -13.543,1.13 -13.543,0.744L-13.542,-1.549L-10.758,-1.549L-10.758,-13.179L-13.541,-13.179L-13.541,-15.472C-13.541,-15.86 -13.368,-16.214 -13.091,-16.472C-12.807,-16.737 -12.412,-16.901 -11.977,-16.901" style="fill:rgb(239,235,235);"/>
    </g>
    <g transform="matrix(0.636883,0,0,0.636883,166.335,19.9991)">
        <path d="M0,9.868C4.488,5.801 9.886,1.917 16.144,1.469C39.295,-0.192 113.525,-0.192 136.677,1.469C143.833,1.981 147.945,4.735 152.82,9.868L152.845,10.06C127.687,9.482 102.247,9.275 76.411,9.352C50.574,9.275 25.135,9.482 -0.024,10.06L0,9.868Z" style="fill:rgb(239,235,235);stroke:rgb(35,31,32);stroke-width:2.22px;"/>
    </g>
    <g transform="matrix(0.636883,0,0,0.636883,178.319,23.8228)">
        <path d="M0,-3.297C26.818,-4.632 89.372,-4.65 115.189,-3.297C118.83,-3.107 119.818,-1.901 119.766,-0.609C119.723,0.442 118.896,1.353 116.14,1.246C83.515,-0.03 31.675,-0.023 -0.95,1.246C-3.705,1.352 -4.533,0.442 -4.576,-0.609C-4.629,-1.901 -3.642,-3.116 0,-3.297" style="fill:rgb(237,28,36);"/>
    </g>
    <g transform="matrix(0.636883,0,0,0.636883,178.319,23.8228)">
        <path d="M0,-3.297C26.818,-4.632 89.372,-4.65 115.189,-3.297C118.83,-3.107 119.818,-1.901 119.766,-0.609C119.723,0.442 118.896,1.353 116.14,1.246C83.515,-0.03 31.675,-0.023 -0.95,1.246C-3.705,1.352 -4.533,0.442 -4.576,-0.609C-4.629,-1.901 -3.642,-3.116 0,-3.297Z" style="fill:none;fill-rule:nonzero;stroke:rgb(35,31,32);stroke-width:0.34px;"/>
    </g>
    <g transform="matrix(-0.610896,-0.180071,-0.180071,0.610896,48.7335,209.289)">
        <path d="M-25.659,3.703L0.534,3.703" style="fill:none;fill-rule:nonzero;stroke:rgb(35,31,32);stroke-width:2.22px;"/>
    </g>
    <g transform="matrix(-0.636883,0,0,0.636883,2009.13,110.753)">
        <rect x="2554.21" y="349.182" width="28.373" height="14.7" style="fill:rgb(237,28,36);stroke:rgb(35,31,32);stroke-width:0.89px;"/>
    </g>
    <g transform="matrix(0.636883,0,0,0.636883,363.242,213.001)">
        <path d="M0,124.104L21.326,124.104C21.822,124.104 22.863,123.853 23.999,121.745L28.881,113.296C29.167,112.8 29.28,111.67 29.28,108.536L29.28,11.438C29.278,10.988 29.442,8.579 28.137,6.881L22.84,0L5.081,4.931C3.892,5.267 0,6.278 0,10.5L0,124.104Z" style="fill:rgb(141,11,14);"/>
    </g>
    <g transform="matrix(0.636883,0,0,0.636883,376.824,213.389)">
        <path d="M0,122.787L-20.617,122.787L-20.617,9.891C-20.617,6.284 -17.258,5.341 -16.124,5.022L1.244,0.199L6.251,6.704C7.299,8.065 7.262,10.037 7.25,10.669C6.828,42.974 7.245,75.587 7.245,107.927C7.245,109.474 7.218,110.522 7.156,111.235C7.102,111.859 7.033,112.177 6.944,112.334L2.051,120.801C1.543,121.742 1.077,122.255 0.689,122.527C0.381,122.744 0.146,122.787 0,122.787M-22.035,124.204L0,124.204C0.349,124.204 0.884,124.12 1.504,123.684C2.043,123.306 2.667,122.638 3.295,121.474L8.167,113.042C8.362,112.699 8.494,112.202 8.567,111.357C8.633,110.599 8.663,109.513 8.663,107.927L8.662,10.69C8.676,9.939 8.72,7.595 7.369,5.841L1.783,-1.417C-4.309,0.272 -10.403,2.016 -16.506,3.661C-17.9,4.053 -22.035,5.213 -22.035,9.891L-22.035,124.204Z" style="fill:rgb(35,31,32);"/>
    </g>
    <g transform="matrix(0.636883,0,0,0.636883,377.958,240.807)">
        <path d="M0,-33.624L-18.537,-33.624C-19.421,-33.624 -20.144,-32.9 -20.144,-32.017L-20.144,-24.919C-20.144,-24.325 -19.394,-23.747 -18.8,-23.747L-9.142,-23.747C-8.259,-23.747 -7.535,-23.022 -7.535,-22.14L-7.535,-1.594C-7.535,-0.742 -6.387,0 -5.534,0L0,0C0.883,0 1.606,-0.723 1.606,-1.606L1.606,-32.017C1.606,-32.9 0.884,-33.624 0,-33.624Z" style="fill:rgb(239,62,61);stroke:rgb(237,28,36);stroke-width:0.34px;"/>
    </g>
    <g transform="matrix(0.636883,0,0,0.636883,370.829,240.807)">
        <path d="M0,-13.458L-7.499,-13.458C-8.297,-13.458 -8.95,-12.804 -8.95,-12.006L-8.95,-1.451C-8.95,-0.654 -8.297,0 -7.499,0L0,0C0.798,0 1.452,-0.653 1.452,-1.451L1.452,-12.006C1.452,-12.805 0.799,-13.458 0,-13.458Z" style="fill:rgb(239,62,61);stroke:rgb(237,28,36);stroke-width:0.34px;"/>
    </g>
    <g transform="matrix(0.636883,0,0,0.636883,370.829,251.514)">
        <path d="M0,-13.458L-7.499,-13.458C-8.297,-13.458 -8.95,-12.804 -8.95,-12.006L-8.95,-1.451C-8.95,-0.653 -8.297,0 -7.499,0L0,0C0.798,0 1.452,-0.653 1.452,-1.451L1.452,-12.006C1.452,-12.805 0.799,-13.458 0,-13.458Z" style="fill:rgb(239,62,61);stroke:rgb(237,28,36);stroke-width:0.34px;"/>
    </g>
    <g transform="matrix(0.636883,0,0,0.636883,377.958,266.716)">
        <path d="M0,-37.328L-6.216,-37.328C-6.894,-37.328 -7.535,-36.458 -7.535,-35.781L-7.535,-19.807C-7.535,-17.613 -8.79,-16.922 -9.517,-16.42L-18.643,-10.099C-19.462,-9.532 -20.144,-8.51 -20.144,-7.513L-20.144,-1.654C-20.144,-0.072 -18.629,0 -17.834,-0.376L-0.609,-8.521C0.392,-8.995 1.606,-10.182 1.606,-12.566L1.606,-35.721C1.606,-36.604 0.884,-37.328 0,-37.328Z" style="fill:rgb(239,62,61);stroke:rgb(237,28,36);stroke-width:0.34px;"/>
    </g>
    <g transform="matrix(0.636883,0,0,0.636883,377.958,261.756)">
        <path d="M0,34.514L-18.537,34.514C-19.421,34.514 -20.144,33.79 -20.144,32.907L-20.144,10.34C-20.144,9.746 -19.337,9.419 -18.8,9.168L0,0.374C0.8,0 1.606,1.098 1.606,1.981L1.606,32.907C1.606,33.79 0.884,34.514 0,34.514" style="fill:rgb(167,169,172);"/>
    </g>
    <g transform="matrix(0.636883,0,0,0.636883,-1262.4,-16.4819)">
        <rect x="2555.47" y="455.155" width="21.75" height="2.531" style="fill:rgb(128,130,133);"/>
    </g>
    <g transform="matrix(-0.579527,0.264136,0.264136,0.579527,365.667,271.949)">
        <path d="M-30.484,-6.619L1.437,-6.62" style="fill:none;fill-rule:nonzero;stroke:rgb(35,31,32);stroke-width:1.11px;"/>
    </g>
    <g transform="matrix(0.636883,0,0,0.636883,356.482,120.98)">
        <path d="M0,-20.489L27.022,-20.489C27.642,-20.489 28.207,-20.252 28.618,-19.87C29.035,-19.482 29.295,-18.944 29.295,-18.351L29.295,-11.918L26.312,-11.918L26.312,-8.571L29.295,-8.571L29.295,-2.137C29.294,-1.543 29.035,-1.006 28.618,-0.619C28.208,-0.237 27.643,0 27.023,0L0.123,-0.02C-0.496,-0.02 -1.059,-0.257 -1.468,-0.636C-1.884,-1.023 -2.144,-1.561 -2.148,-2.153L-2.273,-18.364C-2.271,-18.952 -2.013,-19.484 -1.6,-19.869C-1.192,-20.247 -0.631,-20.483 -0.018,-20.488L0,-20.489Z" style="fill:rgb(35,31,32);stroke:rgb(35,31,32);stroke-width:0.34px;"/>
    </g>
    <g transform="matrix(0.636883,0,0,0.636883,366.065,119.145)">
        <path d="M0,-14.726C1.42,-14.726 2.57,-13.576 2.57,-12.156C2.57,-10.736 1.42,-9.585 0,-9.585C-1.42,-9.585 -2.571,-10.736 -2.571,-12.156C-2.571,-13.576 -1.42,-14.726 0,-14.726M0.349,-5.141C1.768,-5.141 2.919,-3.991 2.919,-2.571C2.919,-1.151 1.768,0 0.349,0C-1.071,0 -2.223,-1.151 -2.223,-2.571C-2.223,-3.991 -1.071,-5.141 0.349,-5.141M-7.202,-5.944L-16.264,-5.944L-16.264,-8.781L-7.202,-8.781L-7.202,-5.944ZM-7.202,-2.313L-16.264,-2.313L-16.264,-5.425L-7.202,-5.425L-7.202,-2.313ZM-7.202,-9.299L-16.264,-9.299L-16.264,-12.412L-7.202,-12.412L-7.202,-9.299ZM13.541,-9.213L11.266,-9.213L11.266,-12.823L13.541,-12.823L13.541,-9.213ZM13.542,-1.901L11.266,-1.901L11.266,-5.511L13.541,-5.511L13.542,-1.901ZM11.977,-16.9L-15.063,-16.9C-15.774,-16.9 -16.488,-16.21 -16.488,-15.483L-16.488,-13.119L-6.346,-13.119L-6.346,-1.607L-16.488,-1.607L-16.488,0.722C-16.488,1.557 -15.726,2.155 -14.923,2.156L11.977,2.174C12.412,2.173 12.807,2.009 13.091,1.745C13.369,1.486 13.542,1.131 13.542,0.745L13.542,-1.547L10.758,-1.547L10.758,-13.177L13.541,-13.177L13.541,-15.47C13.541,-15.858 13.368,-16.213 13.09,-16.471C12.807,-16.735 12.412,-16.9 11.977,-16.9" style="fill:rgb(239,235,235);"/>
    </g>
    <g transform="matrix(0.636883,0,0,0.636883,360.876,308.438)">
        <path d="M0,-20.49L27.022,-20.49C27.643,-20.49 28.208,-20.253 28.618,-19.87C29.036,-19.482 29.296,-18.944 29.296,-18.352L29.296,-11.919L26.312,-11.919L26.312,-8.571L29.296,-8.571L29.296,-2.137C29.294,-1.544 29.035,-1.006 28.619,-0.619C28.208,-0.237 27.643,0 27.023,0L0.124,-0.02C-0.496,-0.02 -1.059,-0.257 -1.468,-0.637C-1.884,-1.024 -2.144,-1.562 -2.147,-2.154L-2.272,-18.365C-2.271,-18.952 -2.013,-19.485 -1.599,-19.869C-1.191,-20.247 -0.631,-20.484 -0.018,-20.488L0,-20.49Z" style="fill:rgb(35,31,32);stroke:rgb(35,31,32);stroke-width:0.34px;"/>
    </g>
    <g transform="matrix(0.636883,0,0,0.636883,370.459,306.604)">
        <path d="M0,-14.728C1.42,-14.728 2.57,-13.577 2.57,-12.158C2.57,-10.738 1.42,-9.586 0,-9.586C-1.42,-9.586 -2.57,-10.738 -2.57,-12.158C-2.57,-13.577 -1.42,-14.728 0,-14.728M0.349,-5.143C1.769,-5.143 2.919,-3.992 2.919,-2.572C2.919,-1.153 1.769,-0.001 0.349,-0.001C-1.071,-0.001 -2.222,-1.153 -2.222,-2.572C-2.222,-3.992 -1.071,-5.143 0.349,-5.143M-7.201,-5.946L-16.264,-5.946L-16.264,-8.782L-7.201,-8.782L-7.201,-5.946ZM-7.201,-2.314L-16.264,-2.314L-16.264,-5.427L-7.201,-5.427L-7.201,-2.314ZM-7.201,-9.3L-16.264,-9.3L-16.264,-12.413L-7.201,-12.413L-7.201,-9.3ZM13.542,-9.215L11.266,-9.215L11.266,-12.825L13.541,-12.825L13.542,-9.215ZM13.542,-1.903L11.266,-1.903L11.266,-5.512L13.542,-5.512L13.542,-1.903ZM11.977,-16.901L-15.062,-16.901C-15.774,-16.901 -16.487,-16.211 -16.487,-15.485L-16.487,-13.12L-6.346,-13.12L-6.346,-1.608L-16.487,-1.608L-16.487,0.72C-16.487,1.555 -15.725,2.154 -14.922,2.154L11.977,2.173C12.413,2.171 12.807,2.007 13.091,1.744C13.369,1.485 13.542,1.13 13.542,0.744L13.542,-1.549L10.758,-1.549L10.758,-13.179L13.541,-13.179L13.541,-15.472C13.541,-15.86 13.368,-16.214 13.091,-16.472C12.807,-16.737 12.412,-16.901 11.977,-16.901" style="fill:rgb(239,235,235);"/>
    </g>
    <g transform="matrix(0.610896,-0.180071,-0.180071,-0.610896,367.154,218.337)">
        <path d="M-0.534,3.703L25.659,3.703" style="fill:none;fill-rule:nonzero;stroke:rgb(35,31,32);stroke-width:2.22px;"/>
    </g>
    <g transform="matrix(0.636883,0,0,0.636883,341.556,24.2662)">
        <path d="M0,18.628L0.656,1.931M-8.362,0L-9.45,17.614" style="fill:none;fill-rule:nonzero;stroke:rgb(35,31,32);stroke-width:1.11px;"/>
    </g>
    <g transform="matrix(0.636883,0,0,0.636883,88.1089,24.2662)">
        <path d="M0,18.628L-0.656,1.931M8.362,0L9.45,17.614" style="fill:none;fill-rule:nonzero;stroke:rgb(35,31,32);stroke-width:1.11px;"/>
    </g>
    <g transform="matrix(0.636883,0,0,0.636883,214.429,180.713)">
        <path d="M0,-50.148C-5.682,-49.981 -9.807,-49.874 -14.936,-49.611C-16.153,-49.548 -19.259,-49.467 -21.188,-46.382C-22.929,-43.6 -24.69,-40.033 -25.227,-38.813C-25.922,-37.227 -26.492,-34.01 -26.619,-30.849L-27.763,-2.439C-27.8,-1.502 -27.817,0 -25.94,0L0,0L0,-50.148Z" style="fill:rgb(35,31,32);stroke:rgb(35,31,32);stroke-width:0.34px;"/>
    </g>
    <g transform="matrix(0.636883,0,0,0.636883,214.429,180.05)">
        <path d="M0,-46.202C-5.682,-46.048 -9.199,-46.091 -14.328,-45.85C-15.546,-45.793 -17.08,-46.133 -18.866,-43.199C-20.427,-40.636 -22.048,-37.204 -22.582,-35.866C-23.183,-34.363 -23.956,-31.333 -24.047,-28.422L-24.904,-1.242C-24.932,-0.379 -24.745,0 -23.94,0L0,0L0,-46.202Z" style="fill:rgb(65,64,66);"/>
    </g>
    <g transform="matrix(0.636883,0,0,0.636883,214.429,173.212)">
        <path d="M0,-27.646L-12.134,-27.646C-13.059,-27.646 -15.551,-27.539 -16.526,-25.602L-18.944,-20.801C-19.576,-19.546 -19.61,-18.953 -19.455,-17.458L-18.063,-4.114C-17.635,0 -14.305,-0.025 -13.378,-0.025L0,-0.025L0,-27.646Z" style="fill:rgb(35,31,32);"/>
    </g>
    <g transform="matrix(0.636883,0,0,0.636883,215.571,180.713)">
        <path d="M0,-50.148C5.681,-49.981 9.807,-49.874 14.935,-49.611C16.153,-49.548 19.259,-49.467 21.187,-46.382C22.928,-43.6 24.69,-40.033 25.226,-38.813C25.922,-37.227 26.492,-34.01 26.619,-30.849L27.762,-2.439C27.8,-1.502 27.816,0 25.94,0L0,0L0,-50.148Z" style="fill:rgb(35,31,32);stroke:rgb(35,31,32);stroke-width:0.34px;"/>
    </g>
    <g transform="matrix(0.636883,0,0,0.636883,215.571,180.05)">
        <path d="M0,-46.202C5.681,-46.048 9.199,-46.091 14.327,-45.85C15.545,-45.793 17.079,-46.133 18.865,-43.199C20.426,-40.636 22.047,-37.204 22.581,-35.866C23.182,-34.363 23.955,-31.333 24.046,-28.422L24.903,-1.242C24.931,-0.379 24.744,0 23.939,0L0,0L0,-46.202Z" style="fill:rgb(65,64,66);"/>
    </g>
    <g transform="matrix(0.636883,0,0,0.636883,215.571,173.212)">
        <path d="M0,-27.646L12.133,-27.646C13.059,-27.646 15.55,-27.539 16.525,-25.602L18.943,-20.801C19.576,-19.546 19.609,-18.953 19.454,-17.458L18.062,-4.114C17.634,0 14.304,-0.025 13.377,-0.025L0,-0.025L0,-27.646Z" style="fill:rgb(35,31,32);"/>
    </g>
    <g transform="matrix(0.636883,0,0,0.636883,206.488,169.794)">
        <path d="M0,-0.636L-0.164,-0.633C-0.634,-0.624 -1.004,-0.617 -1.224,-0.411L-1.525,-0.002L-1.049,-0.011L-0.844,-0.006C-0.727,-0.003 -0.604,0 -0.506,-0.006C-0.482,-0.044 -0.452,-0.088 -0.41,-0.137L0,-0.636Z"/>
    </g>
    <g transform="matrix(0.636883,0,0,0.636883,207.299,171.987)">
        <path d="M0,-23.646C-0.837,-23.646 -3.204,-23.584 -3.894,-22.032L-5.618,-18.612C-6.084,-17.667 -6.184,-16.501 -6.04,-15.226L-4.963,-2.778C-4.776,-0.549 -3.3,0 -1.256,0L25.439,0C27.483,0 28.96,-0.549 29.146,-2.778L30.223,-15.226C30.367,-16.501 30.268,-17.667 29.802,-18.612L28.077,-22.032C27.388,-23.584 25.021,-23.646 24.184,-23.646L0,-23.646Z" style="fill:rgb(128,130,133);"/>
    </g>
    <g transform="matrix(0.636883,0,0,0.636883,203.56,170.906)">
        <path d="M0,-11.565L0.907,-1.081C1.094,1.148 2.57,1.698 4.614,1.698L31.31,1.698C33.354,1.698 34.83,1.148 35.017,-1.081L36.058,-13.121L27.729,-13.263L14.026,-11.685L0,-11.565Z" style="fill:rgb(65,64,66);"/>
    </g>
    <g transform="matrix(0.636883,0,0,0.636883,223.386,169.69)">
        <path d="M0,-17.752L0.746,-17.59L0.625,-17.504L0.639,-17.503C0.819,-17.498 0.974,-17.48 1.274,-17.443L2.208,-17.336L2.283,-17.147C2.344,-16.996 2.393,-16.65 2.412,-16.309C2.431,-15.989 2.427,-15.656 2.388,-15.474C2.36,-15.351 2.335,-15.26 2.302,-15.195L2.295,-15.032C2.292,-14.906 2.289,-14.776 2.267,-14.659C2.031,-13.471 2.078,-13.935 1.986,-12.984C1.982,-12.939 1.979,-12.901 1.982,-12.881C2.028,-12.779 2.054,-12.721 1.992,-12.468C1.94,-12.25 1.875,-12.099 1.81,-11.942L1.647,-11.534L1.4,-11.551C1.179,-11.566 0.817,-11.618 0.436,-11.692C0.211,-11.735 -0.024,-11.786 -0.247,-11.843L-0.267,-11.784C-0.299,-11.268 -0.418,-10.669 -0.52,-10.155L-0.583,-9.832C-0.691,-9.263 -0.871,-8.368 -1.06,-7.541C-1.192,-6.956 -1.33,-6.406 -1.45,-6.032C-1.55,-5.722 -1.739,-5.461 -1.977,-5.249C-2.239,-5.014 -2.562,-4.838 -2.884,-4.72C-2.995,-4.679 -3.083,-4.657 -3.147,-4.642C-3.177,-4.634 -3.117,-4.648 -3.152,-4.523L-3.275,-4.079C-3.504,-3.264 -3.951,-1.67 -4.104,-1.061L-3.884,-0.985C-3.708,-0.921 -3.538,-0.85 -3.382,-0.768C-3.079,-0.607 -2.904,-0.413 -2.809,-0.161C-2.722,0.064 -2.712,0.316 -2.73,0.624L-2.751,0.942L-7.128,0.941L-7.144,0.619C-7.16,0.269 -7.168,-0.089 -7.176,-0.441C-7.194,-1.298 -7.213,-2.124 -7.382,-2.984C-7.521,-3.693 -7.676,-4.067 -7.914,-4.258C-8.15,-4.448 -8.534,-4.502 -9.109,-4.555L-10.898,-4.713C-11.738,-4.782 -12.578,-4.849 -13.416,-4.924L-14.463,-4.998L-15.091,-5.049C-16.677,-5.197 -17.019,-4.95 -17.458,-4.631L-17.636,-4.505C-17.942,-4.299 -18.433,-4.029 -18.963,-3.739C-19.918,-3.217 -21.012,-2.618 -21.259,-2.261C-21.381,-2.083 -21.579,-1.746 -21.75,-1.409C-21.812,-1.286 -21.872,-1.165 -21.92,-1.054L-21.695,-0.969C-21.509,-0.896 -21.322,-0.813 -21.182,-0.737C-20.935,-0.604 -20.76,-0.426 -20.657,-0.181C-20.563,0.042 -20.538,0.312 -20.581,0.646L-20.618,0.941L-25.413,0.942L-25.372,0.568C-25.349,0.345 -25.025,-0.786 -24.807,-1.547L-25.661,-0.48C-25.909,-0.167 -26.165,0.153 -26.427,0.463C-26.453,0.495 -26.468,0.52 -26.48,0.54L-26.481,0.543C-26.592,0.726 -26.642,0.81 -26.982,0.832C-27.099,0.84 -27.248,0.836 -27.391,0.833L-27.869,0.833C-28.171,0.84 -28.516,0.847 -28.759,0.811L-29.318,0.731L-28.285,-0.67L-28.253,-0.707C-27.866,-1.102 -27.401,-1.132 -26.814,-1.143C-26.773,-1.195 -26.732,-1.238 -26.687,-1.284C-26.654,-1.318 -26.617,-1.357 -26.58,-1.402C-26.189,-1.876 -25.681,-2.592 -25.099,-3.41C-23.185,-6.101 -20.486,-9.896 -18.074,-10.545C-17.089,-10.81 -15.955,-11.044 -14.805,-11.249C-13.643,-11.458 -12.494,-11.633 -11.463,-11.785L-11.044,-11.842C-10.14,-11.961 -9.553,-12.038 -9.004,-12.997L-8.896,-13.185L-8.864,-13.182C-8.63,-13.502 -8.257,-13.996 -7.909,-14.446C-7.592,-14.856 -7.291,-15.235 -7.124,-15.422L-6.922,-15.66C-6.81,-15.793 -6.705,-15.92 -6.564,-16.059L-5.977,-16.693C-5.807,-16.887 -5.603,-17.092 -5.387,-17.296C-5.165,-17.506 -4.945,-17.701 -4.74,-17.879C-3.798,-18.694 -3.065,-18.636 -2.028,-18.552L-1.628,-18.521L-1.532,-18.053L0,-17.752Z"/>
    </g>
    <g transform="matrix(0.636883,0,0,0.636883,222.949,169.256)">
        <path d="M0,-16.414C0.153,-16.584 0.384,-16.574 0.614,-16.739C0.404,-16.785 -1.088,-17.071 -1.133,-17.087L-1.221,-17.52C-2.256,-17.601 -2.956,-17.7 -3.833,-16.941C-4.252,-16.579 -4.707,-16.166 -5.042,-15.781L-5.632,-15.145C-5.852,-14.928 -5.976,-14.751 -6.186,-14.516C-6.552,-14.105 -7.645,-12.665 -8.017,-12.147L-8.023,-12.148C-8.737,-10.898 -9.479,-10.953 -10.729,-10.768C-12.808,-10.461 -15.339,-10.064 -17.3,-9.536C-20.307,-8.727 -23.936,-2.564 -25.633,-0.506C-25.766,-0.346 -25.846,-0.304 -25.942,-0.126C-26.537,-0.115 -26.999,-0.122 -27.325,0.211L-28.024,1.158C-27.722,1.202 -27.219,1.173 -26.895,1.173C-26.72,1.173 -26.484,1.188 -26.318,1.176C-26.083,1.16 -26.14,1.094 -25.998,0.926C-25.656,0.521 -25.317,0.089 -24.992,-0.315L-24.04,-1.509L-23.63,-1.35C-23.771,-0.844 -24.321,1.03 -24.35,1.286L-20.229,1.285C-20.159,0.74 -20.299,0.434 -20.655,0.243C-20.918,0.102 -21.379,-0.076 -21.671,-0.158C-21.555,-0.592 -21.081,-1.435 -20.852,-1.769C-20.408,-2.415 -18.01,-3.517 -17.139,-4.103C-16.541,-4.518 -16.272,-4.882 -14.373,-4.704C-14.134,-4.682 -13.515,-4.636 -12.706,-4.579C-12.461,-4.557 -12.219,-4.535 -11.983,-4.517C-10.784,-4.423 -9.581,-4.319 -8.393,-4.209C-7.117,-4.091 -6.677,-3.959 -6.363,-2.367C-6.121,-1.139 -6.181,0.015 -6.119,1.285L-2.382,1.286C-2.35,0.76 -2.408,0.449 -2.853,0.214C-3.138,0.063 -3.475,-0.045 -3.808,-0.148C-3.802,-0.356 -2.922,-3.455 -2.791,-3.93C-2.674,-4.358 -2.707,-4.212 -2.313,-4.356C-1.781,-4.551 -1.258,-4.914 -1.086,-5.453C-0.802,-6.341 -0.413,-8.245 -0.229,-9.215C-0.119,-9.791 0.053,-10.563 0.085,-11.167C0.103,-11.222 0.156,-11.38 0.221,-11.571C0.843,-11.388 1.717,-11.233 2.109,-11.207C2.195,-11.43 2.284,-11.592 2.351,-11.865C2.398,-12.061 2.36,-12.024 2.338,-12.125C2.307,-12.268 2.368,-12.383 2.344,-12.713C2.273,-12.624 2.072,-12.29 2.034,-12.22C0.674,-12.641 0.804,-14.734 2.276,-14.719C2.54,-14.268 2.374,-14.689 2.62,-14.042C2.663,-14.258 2.622,-14.547 2.686,-14.721C2.74,-14.874 2.687,-14.604 2.743,-14.863C2.812,-15.18 2.747,-16.112 2.656,-16.341C0.977,-16.525 1.674,-16.512 0,-16.414" style="fill:rgb(230,231,232);"/>
    </g>
    <g transform="matrix(0.636883,0,0,0.636883,206.001,171.927)">
        <path d="M0,-23.457C0.8,-23.671 1.613,-23.687 2.037,-23.687L26.221,-23.687C26.646,-23.687 27.458,-23.671 28.258,-23.457C29.071,-23.24 29.869,-22.816 30.235,-21.999L31.959,-18.579C32.2,-18.091 32.346,-17.548 32.413,-16.964C32.479,-16.387 32.468,-15.767 32.395,-15.12L31.319,-2.672C31.222,-1.511 30.783,-0.783 30.1,-0.345C29.427,0.087 28.521,0.23 27.477,0.23L0.781,0.23C-0.264,0.23 -1.169,0.087 -1.842,-0.345C-2.525,-0.784 -2.963,-1.512 -3.062,-2.672L-4.138,-15.12C-4.21,-15.767 -4.222,-16.387 -4.155,-16.964C-4.089,-17.548 -3.942,-18.091 -3.702,-18.578L-1.978,-21.999C-1.611,-22.816 -0.813,-23.24 0,-23.457M2.037,-23.416C1.625,-23.416 0.835,-23.4 0.07,-23.196C-0.679,-22.996 -1.409,-22.612 -1.733,-21.883L-3.46,-18.458C-3.685,-18.001 -3.823,-17.487 -3.886,-16.934C-3.95,-16.375 -3.938,-15.774 -3.868,-15.147L-2.791,-2.695C-2.701,-1.628 -2.308,-0.966 -1.695,-0.573C-1.073,-0.174 -0.216,-0.041 0.781,-0.041L27.477,-0.041C28.474,-0.041 29.331,-0.174 29.953,-0.573C30.565,-0.966 30.959,-1.628 31.049,-2.694L32.126,-15.147C32.196,-15.774 32.208,-16.375 32.144,-16.934C32.08,-17.487 31.943,-18.001 31.718,-18.458L29.991,-21.883C29.667,-22.613 28.937,-22.996 28.187,-23.196C27.423,-23.4 26.633,-23.416 26.221,-23.416L2.037,-23.416Z" style="fill:rgb(35,31,32);"/>
    </g>
    <g transform="matrix(0.636883,0,0,0.636883,315.797,297.295)">
        <path d="M0,3.878L-4.937,3.878L-2.47,0.153L0,3.878ZM2.096,-6.086L-7.039,-6.086L-17.734,9.964L-8.943,9.964L-7.748,8.16L2.808,8.16L4.003,9.964L12.795,9.964L2.096,-6.086ZM41.384,9.964L41.384,-6.086L32.863,-6.086L32.863,1.189L22.824,-6.086L14.298,-6.086L14.298,9.964L22.816,9.964L22.816,2.696L32.874,9.964L41.384,9.964ZM-46.517,-6.086L-46.517,9.964L-37.993,9.964L-37.993,3.591L-32.905,8.565L-27.815,3.591L-27.815,9.964L-19.295,9.964L-19.295,-6.086L-27.347,-6.086L-32.905,-0.66L-38.462,-6.086L-46.517,-6.086Z" style="fill:rgb(65,64,66);"/>
    </g>
</svg>
